G04 #@! TF.GenerationSoftware,KiCad,Pcbnew,(5.1.5)-3*
G04 #@! TF.CreationDate,2020-02-27T09:45:15+00:00*
G04 #@! TF.ProjectId,fast_diode_pcb,66617374-5f64-4696-9f64-655f7063622e,rev?*
G04 #@! TF.SameCoordinates,Original*
G04 #@! TF.FileFunction,OtherDrawing,Comment*
%FSLAX46Y46*%
G04 Gerber Fmt 4.6, Leading zero omitted, Abs format (unit mm)*
G04 Created by KiCad (PCBNEW (5.1.5)-3) date 2020-02-27 09:45:15*
%MOMM*%
%LPD*%
G04 APERTURE LIST*
%ADD10C,0.040000*%
G04 APERTURE END LIST*
D10*
X106730952Y-111861428D02*
X106330952Y-111861428D01*
X106330952Y-111709047D01*
X106350000Y-111670952D01*
X106369047Y-111651904D01*
X106407142Y-111632857D01*
X106464285Y-111632857D01*
X106502380Y-111651904D01*
X106521428Y-111670952D01*
X106540476Y-111709047D01*
X106540476Y-111861428D01*
X106692857Y-111232857D02*
X106711904Y-111251904D01*
X106730952Y-111309047D01*
X106730952Y-111347142D01*
X106711904Y-111404285D01*
X106673809Y-111442380D01*
X106635714Y-111461428D01*
X106559523Y-111480476D01*
X106502380Y-111480476D01*
X106426190Y-111461428D01*
X106388095Y-111442380D01*
X106350000Y-111404285D01*
X106330952Y-111347142D01*
X106330952Y-111309047D01*
X106350000Y-111251904D01*
X106369047Y-111232857D01*
X106521428Y-110928095D02*
X106540476Y-110870952D01*
X106559523Y-110851904D01*
X106597619Y-110832857D01*
X106654761Y-110832857D01*
X106692857Y-110851904D01*
X106711904Y-110870952D01*
X106730952Y-110909047D01*
X106730952Y-111061428D01*
X106330952Y-111061428D01*
X106330952Y-110928095D01*
X106350000Y-110890000D01*
X106369047Y-110870952D01*
X106407142Y-110851904D01*
X106445238Y-110851904D01*
X106483333Y-110870952D01*
X106502380Y-110890000D01*
X106521428Y-110928095D01*
X106521428Y-111061428D01*
X106521428Y-110356666D02*
X106521428Y-110223333D01*
X106730952Y-110166190D02*
X106730952Y-110356666D01*
X106330952Y-110356666D01*
X106330952Y-110166190D01*
X106730952Y-109823333D02*
X106330952Y-109823333D01*
X106711904Y-109823333D02*
X106730952Y-109861428D01*
X106730952Y-109937619D01*
X106711904Y-109975714D01*
X106692857Y-109994761D01*
X106654761Y-110013809D01*
X106540476Y-110013809D01*
X106502380Y-109994761D01*
X106483333Y-109975714D01*
X106464285Y-109937619D01*
X106464285Y-109861428D01*
X106483333Y-109823333D01*
X106464285Y-109461428D02*
X106788095Y-109461428D01*
X106826190Y-109480476D01*
X106845238Y-109499523D01*
X106864285Y-109537619D01*
X106864285Y-109594761D01*
X106845238Y-109632857D01*
X106711904Y-109461428D02*
X106730952Y-109499523D01*
X106730952Y-109575714D01*
X106711904Y-109613809D01*
X106692857Y-109632857D01*
X106654761Y-109651904D01*
X106540476Y-109651904D01*
X106502380Y-109632857D01*
X106483333Y-109613809D01*
X106464285Y-109575714D01*
X106464285Y-109499523D01*
X106483333Y-109461428D01*
X106711904Y-109118571D02*
X106730952Y-109156666D01*
X106730952Y-109232857D01*
X106711904Y-109270952D01*
X106673809Y-109290000D01*
X106521428Y-109290000D01*
X106483333Y-109270952D01*
X106464285Y-109232857D01*
X106464285Y-109156666D01*
X106483333Y-109118571D01*
X106521428Y-109099523D01*
X106559523Y-109099523D01*
X106597619Y-109290000D01*
M02*
