G04 #@! TF.GenerationSoftware,KiCad,Pcbnew,(5.1.5)-3*
G04 #@! TF.CreationDate,2020-02-27T09:45:14+00:00*
G04 #@! TF.ProjectId,fast_diode_pcb,66617374-5f64-4696-9f64-655f7063622e,rev?*
G04 #@! TF.SameCoordinates,Original*
G04 #@! TF.FileFunction,Legend,Top*
G04 #@! TF.FilePolarity,Positive*
%FSLAX46Y46*%
G04 Gerber Fmt 4.6, Leading zero omitted, Abs format (unit mm)*
G04 Created by KiCad (PCBNEW (5.1.5)-3) date 2020-02-27 09:45:14*
%MOMM*%
%LPD*%
G04 APERTURE LIST*
%ADD10C,0.100000*%
%ADD11C,0.120000*%
%ADD12C,0.010000*%
%ADD13C,0.150000*%
G04 APERTURE END LIST*
D10*
X134839523Y-115161190D02*
X134839523Y-114661190D01*
X135053809Y-115161190D02*
X135053809Y-114899285D01*
X135030000Y-114851666D01*
X134982380Y-114827857D01*
X134910952Y-114827857D01*
X134863333Y-114851666D01*
X134839523Y-114875476D01*
X135220476Y-114827857D02*
X135410952Y-114827857D01*
X135291904Y-114661190D02*
X135291904Y-115089761D01*
X135315714Y-115137380D01*
X135363333Y-115161190D01*
X135410952Y-115161190D01*
X135506190Y-114827857D02*
X135696666Y-114827857D01*
X135577619Y-114661190D02*
X135577619Y-115089761D01*
X135601428Y-115137380D01*
X135649047Y-115161190D01*
X135696666Y-115161190D01*
X135863333Y-114827857D02*
X135863333Y-115327857D01*
X135863333Y-114851666D02*
X135910952Y-114827857D01*
X136006190Y-114827857D01*
X136053809Y-114851666D01*
X136077619Y-114875476D01*
X136101428Y-114923095D01*
X136101428Y-115065952D01*
X136077619Y-115113571D01*
X136053809Y-115137380D01*
X136006190Y-115161190D01*
X135910952Y-115161190D01*
X135863333Y-115137380D01*
X136291904Y-115137380D02*
X136339523Y-115161190D01*
X136434761Y-115161190D01*
X136482380Y-115137380D01*
X136506190Y-115089761D01*
X136506190Y-115065952D01*
X136482380Y-115018333D01*
X136434761Y-114994523D01*
X136363333Y-114994523D01*
X136315714Y-114970714D01*
X136291904Y-114923095D01*
X136291904Y-114899285D01*
X136315714Y-114851666D01*
X136363333Y-114827857D01*
X136434761Y-114827857D01*
X136482380Y-114851666D01*
X136720476Y-115113571D02*
X136744285Y-115137380D01*
X136720476Y-115161190D01*
X136696666Y-115137380D01*
X136720476Y-115113571D01*
X136720476Y-115161190D01*
X136720476Y-114851666D02*
X136744285Y-114875476D01*
X136720476Y-114899285D01*
X136696666Y-114875476D01*
X136720476Y-114851666D01*
X136720476Y-114899285D01*
X137315714Y-114637380D02*
X136887142Y-115280238D01*
X137839523Y-114637380D02*
X137410952Y-115280238D01*
X138220476Y-114827857D02*
X138220476Y-115232619D01*
X138196666Y-115280238D01*
X138172857Y-115304047D01*
X138125238Y-115327857D01*
X138053809Y-115327857D01*
X138006190Y-115304047D01*
X138220476Y-115137380D02*
X138172857Y-115161190D01*
X138077619Y-115161190D01*
X138030000Y-115137380D01*
X138006190Y-115113571D01*
X137982380Y-115065952D01*
X137982380Y-114923095D01*
X138006190Y-114875476D01*
X138030000Y-114851666D01*
X138077619Y-114827857D01*
X138172857Y-114827857D01*
X138220476Y-114851666D01*
X138458571Y-115161190D02*
X138458571Y-114827857D01*
X138458571Y-114661190D02*
X138434761Y-114685000D01*
X138458571Y-114708809D01*
X138482380Y-114685000D01*
X138458571Y-114661190D01*
X138458571Y-114708809D01*
X138625238Y-114827857D02*
X138815714Y-114827857D01*
X138696666Y-114661190D02*
X138696666Y-115089761D01*
X138720476Y-115137380D01*
X138768095Y-115161190D01*
X138815714Y-115161190D01*
X138982380Y-115161190D02*
X138982380Y-114661190D01*
X139196666Y-115161190D02*
X139196666Y-114899285D01*
X139172857Y-114851666D01*
X139125238Y-114827857D01*
X139053809Y-114827857D01*
X139006190Y-114851666D01*
X138982380Y-114875476D01*
X139649047Y-114827857D02*
X139649047Y-115161190D01*
X139434761Y-114827857D02*
X139434761Y-115089761D01*
X139458571Y-115137380D01*
X139506190Y-115161190D01*
X139577619Y-115161190D01*
X139625238Y-115137380D01*
X139649047Y-115113571D01*
X139887142Y-115161190D02*
X139887142Y-114661190D01*
X139887142Y-114851666D02*
X139934761Y-114827857D01*
X140030000Y-114827857D01*
X140077619Y-114851666D01*
X140101428Y-114875476D01*
X140125238Y-114923095D01*
X140125238Y-115065952D01*
X140101428Y-115113571D01*
X140077619Y-115137380D01*
X140030000Y-115161190D01*
X139934761Y-115161190D01*
X139887142Y-115137380D01*
X140339523Y-115113571D02*
X140363333Y-115137380D01*
X140339523Y-115161190D01*
X140315714Y-115137380D01*
X140339523Y-115113571D01*
X140339523Y-115161190D01*
X140791904Y-115137380D02*
X140744285Y-115161190D01*
X140649047Y-115161190D01*
X140601428Y-115137380D01*
X140577619Y-115113571D01*
X140553809Y-115065952D01*
X140553809Y-114923095D01*
X140577619Y-114875476D01*
X140601428Y-114851666D01*
X140649047Y-114827857D01*
X140744285Y-114827857D01*
X140791904Y-114851666D01*
X141077619Y-115161190D02*
X141030000Y-115137380D01*
X141006190Y-115113571D01*
X140982380Y-115065952D01*
X140982380Y-114923095D01*
X141006190Y-114875476D01*
X141030000Y-114851666D01*
X141077619Y-114827857D01*
X141149047Y-114827857D01*
X141196666Y-114851666D01*
X141220476Y-114875476D01*
X141244285Y-114923095D01*
X141244285Y-115065952D01*
X141220476Y-115113571D01*
X141196666Y-115137380D01*
X141149047Y-115161190D01*
X141077619Y-115161190D01*
X141458571Y-115161190D02*
X141458571Y-114827857D01*
X141458571Y-114875476D02*
X141482380Y-114851666D01*
X141530000Y-114827857D01*
X141601428Y-114827857D01*
X141649047Y-114851666D01*
X141672857Y-114899285D01*
X141672857Y-115161190D01*
X141672857Y-114899285D02*
X141696666Y-114851666D01*
X141744285Y-114827857D01*
X141815714Y-114827857D01*
X141863333Y-114851666D01*
X141887142Y-114899285D01*
X141887142Y-115161190D01*
X142482380Y-114637380D02*
X142053809Y-115280238D01*
X142863333Y-115161190D02*
X142863333Y-114899285D01*
X142839523Y-114851666D01*
X142791904Y-114827857D01*
X142696666Y-114827857D01*
X142649047Y-114851666D01*
X142863333Y-115137380D02*
X142815714Y-115161190D01*
X142696666Y-115161190D01*
X142649047Y-115137380D01*
X142625238Y-115089761D01*
X142625238Y-115042142D01*
X142649047Y-114994523D01*
X142696666Y-114970714D01*
X142815714Y-114970714D01*
X142863333Y-114946904D01*
X143101428Y-115161190D02*
X143101428Y-114827857D01*
X143101428Y-114875476D02*
X143125238Y-114851666D01*
X143172857Y-114827857D01*
X143244285Y-114827857D01*
X143291904Y-114851666D01*
X143315714Y-114899285D01*
X143315714Y-115161190D01*
X143315714Y-114899285D02*
X143339523Y-114851666D01*
X143387142Y-114827857D01*
X143458571Y-114827857D01*
X143506190Y-114851666D01*
X143530000Y-114899285D01*
X143530000Y-115161190D01*
X143982380Y-115137380D02*
X143934761Y-115161190D01*
X143839523Y-115161190D01*
X143791904Y-115137380D01*
X143768095Y-115113571D01*
X143744285Y-115065952D01*
X143744285Y-114923095D01*
X143768095Y-114875476D01*
X143791904Y-114851666D01*
X143839523Y-114827857D01*
X143934761Y-114827857D01*
X143982380Y-114851666D01*
X144196666Y-115161190D02*
X144196666Y-114661190D01*
X144410952Y-115161190D02*
X144410952Y-114899285D01*
X144387142Y-114851666D01*
X144339523Y-114827857D01*
X144268095Y-114827857D01*
X144220476Y-114851666D01*
X144196666Y-114875476D01*
X144863333Y-115161190D02*
X144863333Y-114899285D01*
X144839523Y-114851666D01*
X144791904Y-114827857D01*
X144696666Y-114827857D01*
X144649047Y-114851666D01*
X144863333Y-115137380D02*
X144815714Y-115161190D01*
X144696666Y-115161190D01*
X144649047Y-115137380D01*
X144625238Y-115089761D01*
X144625238Y-115042142D01*
X144649047Y-114994523D01*
X144696666Y-114970714D01*
X144815714Y-114970714D01*
X144863333Y-114946904D01*
X145315714Y-114827857D02*
X145315714Y-115232619D01*
X145291904Y-115280238D01*
X145268095Y-115304047D01*
X145220476Y-115327857D01*
X145149047Y-115327857D01*
X145101428Y-115304047D01*
X145315714Y-115137380D02*
X145268095Y-115161190D01*
X145172857Y-115161190D01*
X145125238Y-115137380D01*
X145101428Y-115113571D01*
X145077619Y-115065952D01*
X145077619Y-114923095D01*
X145101428Y-114875476D01*
X145125238Y-114851666D01*
X145172857Y-114827857D01*
X145268095Y-114827857D01*
X145315714Y-114851666D01*
X145768095Y-115161190D02*
X145768095Y-114899285D01*
X145744285Y-114851666D01*
X145696666Y-114827857D01*
X145601428Y-114827857D01*
X145553809Y-114851666D01*
X145768095Y-115137380D02*
X145720476Y-115161190D01*
X145601428Y-115161190D01*
X145553809Y-115137380D01*
X145530000Y-115089761D01*
X145530000Y-115042142D01*
X145553809Y-114994523D01*
X145601428Y-114970714D01*
X145720476Y-114970714D01*
X145768095Y-114946904D01*
X145982380Y-115137380D02*
X146030000Y-115161190D01*
X146125238Y-115161190D01*
X146172857Y-115137380D01*
X146196666Y-115089761D01*
X146196666Y-115065952D01*
X146172857Y-115018333D01*
X146125238Y-114994523D01*
X146053809Y-114994523D01*
X146006190Y-114970714D01*
X145982380Y-114923095D01*
X145982380Y-114899285D01*
X146006190Y-114851666D01*
X146053809Y-114827857D01*
X146125238Y-114827857D01*
X146172857Y-114851666D01*
X146768095Y-114637380D02*
X146339523Y-115280238D01*
X146863333Y-114827857D02*
X147053809Y-114827857D01*
X146934761Y-115161190D02*
X146934761Y-114732619D01*
X146958571Y-114685000D01*
X147006190Y-114661190D01*
X147053809Y-114661190D01*
X147434761Y-115161190D02*
X147434761Y-114899285D01*
X147410952Y-114851666D01*
X147363333Y-114827857D01*
X147268095Y-114827857D01*
X147220476Y-114851666D01*
X147434761Y-115137380D02*
X147387142Y-115161190D01*
X147268095Y-115161190D01*
X147220476Y-115137380D01*
X147196666Y-115089761D01*
X147196666Y-115042142D01*
X147220476Y-114994523D01*
X147268095Y-114970714D01*
X147387142Y-114970714D01*
X147434761Y-114946904D01*
X147649047Y-115137380D02*
X147696666Y-115161190D01*
X147791904Y-115161190D01*
X147839523Y-115137380D01*
X147863333Y-115089761D01*
X147863333Y-115065952D01*
X147839523Y-115018333D01*
X147791904Y-114994523D01*
X147720476Y-114994523D01*
X147672857Y-114970714D01*
X147649047Y-114923095D01*
X147649047Y-114899285D01*
X147672857Y-114851666D01*
X147720476Y-114827857D01*
X147791904Y-114827857D01*
X147839523Y-114851666D01*
X148006190Y-114827857D02*
X148196666Y-114827857D01*
X148077619Y-114661190D02*
X148077619Y-115089761D01*
X148101428Y-115137380D01*
X148149047Y-115161190D01*
X148196666Y-115161190D01*
X148363333Y-114970714D02*
X148744285Y-114970714D01*
X148982380Y-115161190D02*
X148982380Y-114827857D01*
X148982380Y-114923095D02*
X149006190Y-114875476D01*
X149029999Y-114851666D01*
X149077619Y-114827857D01*
X149125238Y-114827857D01*
X149482380Y-115137380D02*
X149434761Y-115161190D01*
X149339523Y-115161190D01*
X149291904Y-115137380D01*
X149268095Y-115089761D01*
X149268095Y-114899285D01*
X149291904Y-114851666D01*
X149339523Y-114827857D01*
X149434761Y-114827857D01*
X149482380Y-114851666D01*
X149506190Y-114899285D01*
X149506190Y-114946904D01*
X149268095Y-114994523D01*
X149696666Y-115137380D02*
X149744285Y-115161190D01*
X149839523Y-115161190D01*
X149887142Y-115137380D01*
X149910952Y-115089761D01*
X149910952Y-115065952D01*
X149887142Y-115018333D01*
X149839523Y-114994523D01*
X149768095Y-114994523D01*
X149720476Y-114970714D01*
X149696666Y-114923095D01*
X149696666Y-114899285D01*
X149720476Y-114851666D01*
X149768095Y-114827857D01*
X149839523Y-114827857D01*
X149887142Y-114851666D01*
X150125238Y-114827857D02*
X150125238Y-115327857D01*
X150125238Y-114851666D02*
X150172857Y-114827857D01*
X150268095Y-114827857D01*
X150315714Y-114851666D01*
X150339523Y-114875476D01*
X150363333Y-114923095D01*
X150363333Y-115065952D01*
X150339523Y-115113571D01*
X150315714Y-115137380D01*
X150268095Y-115161190D01*
X150172857Y-115161190D01*
X150125238Y-115137380D01*
X150649047Y-115161190D02*
X150601428Y-115137380D01*
X150577619Y-115113571D01*
X150553809Y-115065952D01*
X150553809Y-114923095D01*
X150577619Y-114875476D01*
X150601428Y-114851666D01*
X150649047Y-114827857D01*
X150720476Y-114827857D01*
X150768095Y-114851666D01*
X150791904Y-114875476D01*
X150815714Y-114923095D01*
X150815714Y-115065952D01*
X150791904Y-115113571D01*
X150768095Y-115137380D01*
X150720476Y-115161190D01*
X150649047Y-115161190D01*
X151029999Y-114827857D02*
X151029999Y-115161190D01*
X151029999Y-114875476D02*
X151053809Y-114851666D01*
X151101428Y-114827857D01*
X151172857Y-114827857D01*
X151220476Y-114851666D01*
X151244285Y-114899285D01*
X151244285Y-115161190D01*
X151458571Y-115137380D02*
X151506190Y-115161190D01*
X151601428Y-115161190D01*
X151649047Y-115137380D01*
X151672857Y-115089761D01*
X151672857Y-115065952D01*
X151649047Y-115018333D01*
X151601428Y-114994523D01*
X151529999Y-114994523D01*
X151482380Y-114970714D01*
X151458571Y-114923095D01*
X151458571Y-114899285D01*
X151482380Y-114851666D01*
X151529999Y-114827857D01*
X151601428Y-114827857D01*
X151649047Y-114851666D01*
X152077619Y-115137380D02*
X152029999Y-115161190D01*
X151934761Y-115161190D01*
X151887142Y-115137380D01*
X151863333Y-115089761D01*
X151863333Y-114899285D01*
X151887142Y-114851666D01*
X151934761Y-114827857D01*
X152029999Y-114827857D01*
X152077619Y-114851666D01*
X152101428Y-114899285D01*
X152101428Y-114946904D01*
X151863333Y-114994523D01*
X152315714Y-114970714D02*
X152696666Y-114970714D01*
X153149047Y-115161190D02*
X153149047Y-114661190D01*
X153149047Y-115137380D02*
X153101428Y-115161190D01*
X153006190Y-115161190D01*
X152958571Y-115137380D01*
X152934761Y-115113571D01*
X152910952Y-115065952D01*
X152910952Y-114923095D01*
X152934761Y-114875476D01*
X152958571Y-114851666D01*
X153006190Y-114827857D01*
X153101428Y-114827857D01*
X153149047Y-114851666D01*
X153387142Y-115161190D02*
X153387142Y-114827857D01*
X153387142Y-114661190D02*
X153363333Y-114685000D01*
X153387142Y-114708809D01*
X153410952Y-114685000D01*
X153387142Y-114661190D01*
X153387142Y-114708809D01*
X153696666Y-115161190D02*
X153649047Y-115137380D01*
X153625238Y-115113571D01*
X153601428Y-115065952D01*
X153601428Y-114923095D01*
X153625238Y-114875476D01*
X153649047Y-114851666D01*
X153696666Y-114827857D01*
X153768095Y-114827857D01*
X153815714Y-114851666D01*
X153839523Y-114875476D01*
X153863333Y-114923095D01*
X153863333Y-115065952D01*
X153839523Y-115113571D01*
X153815714Y-115137380D01*
X153768095Y-115161190D01*
X153696666Y-115161190D01*
X154291904Y-115161190D02*
X154291904Y-114661190D01*
X154291904Y-115137380D02*
X154244285Y-115161190D01*
X154149047Y-115161190D01*
X154101428Y-115137380D01*
X154077619Y-115113571D01*
X154053809Y-115065952D01*
X154053809Y-114923095D01*
X154077619Y-114875476D01*
X154101428Y-114851666D01*
X154149047Y-114827857D01*
X154244285Y-114827857D01*
X154291904Y-114851666D01*
X154720476Y-115137380D02*
X154672857Y-115161190D01*
X154577619Y-115161190D01*
X154529999Y-115137380D01*
X154506190Y-115089761D01*
X154506190Y-114899285D01*
X154529999Y-114851666D01*
X154577619Y-114827857D01*
X154672857Y-114827857D01*
X154720476Y-114851666D01*
X154744285Y-114899285D01*
X154744285Y-114946904D01*
X154506190Y-114994523D01*
D11*
X145898095Y-111360714D02*
X145860000Y-111398809D01*
X145745714Y-111436904D01*
X145669523Y-111436904D01*
X145555238Y-111398809D01*
X145479047Y-111322619D01*
X145440952Y-111246428D01*
X145402857Y-111094047D01*
X145402857Y-110979761D01*
X145440952Y-110827380D01*
X145479047Y-110751190D01*
X145555238Y-110675000D01*
X145669523Y-110636904D01*
X145745714Y-110636904D01*
X145860000Y-110675000D01*
X145898095Y-110713095D01*
X146240952Y-111017857D02*
X146507619Y-111017857D01*
X146621904Y-111436904D02*
X146240952Y-111436904D01*
X146240952Y-110636904D01*
X146621904Y-110636904D01*
X147421904Y-111436904D02*
X147155238Y-111055952D01*
X146964761Y-111436904D02*
X146964761Y-110636904D01*
X147269523Y-110636904D01*
X147345714Y-110675000D01*
X147383809Y-110713095D01*
X147421904Y-110789285D01*
X147421904Y-110903571D01*
X147383809Y-110979761D01*
X147345714Y-111017857D01*
X147269523Y-111055952D01*
X146964761Y-111055952D01*
X147764761Y-111436904D02*
X147764761Y-110636904D01*
X148221904Y-111436904D01*
X148221904Y-110636904D01*
X149364761Y-110636904D02*
X149517142Y-110636904D01*
X149593333Y-110675000D01*
X149669523Y-110751190D01*
X149707619Y-110903571D01*
X149707619Y-111170238D01*
X149669523Y-111322619D01*
X149593333Y-111398809D01*
X149517142Y-111436904D01*
X149364761Y-111436904D01*
X149288571Y-111398809D01*
X149212380Y-111322619D01*
X149174285Y-111170238D01*
X149174285Y-110903571D01*
X149212380Y-110751190D01*
X149288571Y-110675000D01*
X149364761Y-110636904D01*
X150050476Y-111436904D02*
X150050476Y-110636904D01*
X150050476Y-111017857D02*
X150507619Y-111017857D01*
X150507619Y-111436904D02*
X150507619Y-110636904D01*
X151269523Y-111436904D02*
X150888571Y-111436904D01*
X150888571Y-110636904D01*
X152069523Y-110903571D02*
X152260000Y-111436904D01*
X152450476Y-110903571D01*
X153174285Y-111436904D02*
X152717142Y-111436904D01*
X152945714Y-111436904D02*
X152945714Y-110636904D01*
X152869523Y-110751190D01*
X152793333Y-110827380D01*
X152717142Y-110865476D01*
X153517142Y-111360714D02*
X153555238Y-111398809D01*
X153517142Y-111436904D01*
X153479047Y-111398809D01*
X153517142Y-111360714D01*
X153517142Y-111436904D01*
X153860000Y-110713095D02*
X153898095Y-110675000D01*
X153974285Y-110636904D01*
X154164761Y-110636904D01*
X154240952Y-110675000D01*
X154279047Y-110713095D01*
X154317142Y-110789285D01*
X154317142Y-110865476D01*
X154279047Y-110979761D01*
X153821904Y-111436904D01*
X154317142Y-111436904D01*
X146736190Y-112528333D02*
X147117142Y-112528333D01*
X146660000Y-112756904D02*
X146926666Y-111956904D01*
X147193333Y-112756904D01*
X147460000Y-112756904D02*
X147460000Y-111956904D01*
X147726666Y-112528333D01*
X147993333Y-111956904D01*
X147993333Y-112756904D01*
X149440952Y-112680714D02*
X149402857Y-112718809D01*
X149288571Y-112756904D01*
X149212380Y-112756904D01*
X149098095Y-112718809D01*
X149021904Y-112642619D01*
X148983809Y-112566428D01*
X148945714Y-112414047D01*
X148945714Y-112299761D01*
X148983809Y-112147380D01*
X149021904Y-112071190D01*
X149098095Y-111995000D01*
X149212380Y-111956904D01*
X149288571Y-111956904D01*
X149402857Y-111995000D01*
X149440952Y-112033095D01*
X149783809Y-112756904D02*
X149783809Y-111956904D01*
X150126666Y-112756904D02*
X150126666Y-112337857D01*
X150088571Y-112261666D01*
X150012380Y-112223571D01*
X149898095Y-112223571D01*
X149821904Y-112261666D01*
X149783809Y-112299761D01*
X150850476Y-112756904D02*
X150850476Y-112337857D01*
X150812380Y-112261666D01*
X150736190Y-112223571D01*
X150583809Y-112223571D01*
X150507619Y-112261666D01*
X150850476Y-112718809D02*
X150774285Y-112756904D01*
X150583809Y-112756904D01*
X150507619Y-112718809D01*
X150469523Y-112642619D01*
X150469523Y-112566428D01*
X150507619Y-112490238D01*
X150583809Y-112452142D01*
X150774285Y-112452142D01*
X150850476Y-112414047D01*
X151574285Y-112223571D02*
X151574285Y-112871190D01*
X151536190Y-112947380D01*
X151498095Y-112985476D01*
X151421904Y-113023571D01*
X151307619Y-113023571D01*
X151231428Y-112985476D01*
X151574285Y-112718809D02*
X151498095Y-112756904D01*
X151345714Y-112756904D01*
X151269523Y-112718809D01*
X151231428Y-112680714D01*
X151193333Y-112604523D01*
X151193333Y-112375952D01*
X151231428Y-112299761D01*
X151269523Y-112261666D01*
X151345714Y-112223571D01*
X151498095Y-112223571D01*
X151574285Y-112261666D01*
X152298095Y-112756904D02*
X152298095Y-112337857D01*
X152260000Y-112261666D01*
X152183809Y-112223571D01*
X152031428Y-112223571D01*
X151955238Y-112261666D01*
X152298095Y-112718809D02*
X152221904Y-112756904D01*
X152031428Y-112756904D01*
X151955238Y-112718809D01*
X151917142Y-112642619D01*
X151917142Y-112566428D01*
X151955238Y-112490238D01*
X152031428Y-112452142D01*
X152221904Y-112452142D01*
X152298095Y-112414047D01*
X152640952Y-112718809D02*
X152717142Y-112756904D01*
X152869523Y-112756904D01*
X152945714Y-112718809D01*
X152983809Y-112642619D01*
X152983809Y-112604523D01*
X152945714Y-112528333D01*
X152869523Y-112490238D01*
X152755238Y-112490238D01*
X152679047Y-112452142D01*
X152640952Y-112375952D01*
X152640952Y-112337857D01*
X152679047Y-112261666D01*
X152755238Y-112223571D01*
X152869523Y-112223571D01*
X152945714Y-112261666D01*
X146964761Y-113353095D02*
X147002857Y-113315000D01*
X147079047Y-113276904D01*
X147269523Y-113276904D01*
X147345714Y-113315000D01*
X147383809Y-113353095D01*
X147421904Y-113429285D01*
X147421904Y-113505476D01*
X147383809Y-113619761D01*
X146926666Y-114076904D01*
X147421904Y-114076904D01*
X147917142Y-113276904D02*
X147993333Y-113276904D01*
X148069523Y-113315000D01*
X148107619Y-113353095D01*
X148145714Y-113429285D01*
X148183809Y-113581666D01*
X148183809Y-113772142D01*
X148145714Y-113924523D01*
X148107619Y-114000714D01*
X148069523Y-114038809D01*
X147993333Y-114076904D01*
X147917142Y-114076904D01*
X147840952Y-114038809D01*
X147802857Y-114000714D01*
X147764761Y-113924523D01*
X147726666Y-113772142D01*
X147726666Y-113581666D01*
X147764761Y-113429285D01*
X147802857Y-113353095D01*
X147840952Y-113315000D01*
X147917142Y-113276904D01*
X148488571Y-113353095D02*
X148526666Y-113315000D01*
X148602857Y-113276904D01*
X148793333Y-113276904D01*
X148869523Y-113315000D01*
X148907619Y-113353095D01*
X148945714Y-113429285D01*
X148945714Y-113505476D01*
X148907619Y-113619761D01*
X148450476Y-114076904D01*
X148945714Y-114076904D01*
X149440952Y-113276904D02*
X149517142Y-113276904D01*
X149593333Y-113315000D01*
X149631428Y-113353095D01*
X149669523Y-113429285D01*
X149707619Y-113581666D01*
X149707619Y-113772142D01*
X149669523Y-113924523D01*
X149631428Y-114000714D01*
X149593333Y-114038809D01*
X149517142Y-114076904D01*
X149440952Y-114076904D01*
X149364761Y-114038809D01*
X149326666Y-114000714D01*
X149288571Y-113924523D01*
X149250476Y-113772142D01*
X149250476Y-113581666D01*
X149288571Y-113429285D01*
X149326666Y-113353095D01*
X149364761Y-113315000D01*
X149440952Y-113276904D01*
X150202857Y-113276904D02*
X150279047Y-113276904D01*
X150355238Y-113315000D01*
X150393333Y-113353095D01*
X150431428Y-113429285D01*
X150469523Y-113581666D01*
X150469523Y-113772142D01*
X150431428Y-113924523D01*
X150393333Y-114000714D01*
X150355238Y-114038809D01*
X150279047Y-114076904D01*
X150202857Y-114076904D01*
X150126666Y-114038809D01*
X150088571Y-114000714D01*
X150050476Y-113924523D01*
X150012380Y-113772142D01*
X150012380Y-113581666D01*
X150050476Y-113429285D01*
X150088571Y-113353095D01*
X150126666Y-113315000D01*
X150202857Y-113276904D01*
X150774285Y-113353095D02*
X150812380Y-113315000D01*
X150888571Y-113276904D01*
X151079047Y-113276904D01*
X151155238Y-113315000D01*
X151193333Y-113353095D01*
X151231428Y-113429285D01*
X151231428Y-113505476D01*
X151193333Y-113619761D01*
X150736190Y-114076904D01*
X151231428Y-114076904D01*
X151536190Y-113353095D02*
X151574285Y-113315000D01*
X151650476Y-113276904D01*
X151840952Y-113276904D01*
X151917142Y-113315000D01*
X151955238Y-113353095D01*
X151993333Y-113429285D01*
X151993333Y-113505476D01*
X151955238Y-113619761D01*
X151498095Y-114076904D01*
X151993333Y-114076904D01*
X152260000Y-113276904D02*
X152793333Y-113276904D01*
X152450476Y-114076904D01*
D12*
G36*
X151233910Y-88047348D02*
G01*
X151312454Y-88047778D01*
X151369298Y-88048942D01*
X151408105Y-88051207D01*
X151432538Y-88054940D01*
X151446262Y-88060506D01*
X151452940Y-88068273D01*
X151456236Y-88078605D01*
X151456556Y-88079943D01*
X151461562Y-88104079D01*
X151470829Y-88151701D01*
X151483392Y-88217741D01*
X151498287Y-88297128D01*
X151514551Y-88384796D01*
X151515119Y-88387875D01*
X151531410Y-88473789D01*
X151546652Y-88549696D01*
X151559861Y-88611045D01*
X151570054Y-88653282D01*
X151576248Y-88671855D01*
X151576543Y-88672184D01*
X151594788Y-88681253D01*
X151632405Y-88696367D01*
X151681271Y-88714262D01*
X151681543Y-88714358D01*
X151743093Y-88737493D01*
X151815657Y-88766965D01*
X151884057Y-88796597D01*
X151887294Y-88798062D01*
X151998702Y-88848626D01*
X152245399Y-88680160D01*
X152321077Y-88628803D01*
X152389631Y-88582889D01*
X152447088Y-88545030D01*
X152489476Y-88517837D01*
X152512825Y-88503921D01*
X152515042Y-88502889D01*
X152532010Y-88507484D01*
X152563701Y-88529655D01*
X152611352Y-88570447D01*
X152676198Y-88630905D01*
X152742397Y-88695227D01*
X152806214Y-88758612D01*
X152863329Y-88816451D01*
X152910305Y-88865175D01*
X152943703Y-88901210D01*
X152960085Y-88920984D01*
X152960694Y-88922002D01*
X152962505Y-88935572D01*
X152955683Y-88957733D01*
X152938540Y-88991478D01*
X152909393Y-89039800D01*
X152866555Y-89105692D01*
X152809448Y-89190517D01*
X152758766Y-89265177D01*
X152713461Y-89332140D01*
X152676150Y-89387516D01*
X152649452Y-89427420D01*
X152635985Y-89447962D01*
X152635137Y-89449356D01*
X152636781Y-89469038D01*
X152649245Y-89507293D01*
X152670048Y-89556889D01*
X152677462Y-89572728D01*
X152709814Y-89643290D01*
X152744328Y-89723353D01*
X152772365Y-89792629D01*
X152792568Y-89844045D01*
X152808615Y-89883119D01*
X152817888Y-89903541D01*
X152819041Y-89905114D01*
X152836096Y-89907721D01*
X152876298Y-89914863D01*
X152934302Y-89925523D01*
X153004763Y-89938685D01*
X153082335Y-89953333D01*
X153161672Y-89968449D01*
X153237431Y-89983018D01*
X153304264Y-89996022D01*
X153356828Y-90006445D01*
X153389776Y-90013270D01*
X153397857Y-90015199D01*
X153406205Y-90019962D01*
X153412506Y-90030718D01*
X153417045Y-90051098D01*
X153420104Y-90084734D01*
X153421967Y-90135255D01*
X153422918Y-90206292D01*
X153423240Y-90301476D01*
X153423257Y-90340492D01*
X153423257Y-90657799D01*
X153347057Y-90672839D01*
X153304663Y-90680995D01*
X153241400Y-90692899D01*
X153164962Y-90707116D01*
X153083043Y-90722210D01*
X153060400Y-90726355D01*
X152984806Y-90741053D01*
X152918953Y-90755505D01*
X152868366Y-90768375D01*
X152838574Y-90778322D01*
X152833612Y-90781287D01*
X152821426Y-90802283D01*
X152803953Y-90842967D01*
X152784577Y-90895322D01*
X152780734Y-90906600D01*
X152755339Y-90976523D01*
X152723817Y-91055418D01*
X152692969Y-91126266D01*
X152692817Y-91126595D01*
X152641447Y-91237733D01*
X152810399Y-91486253D01*
X152979352Y-91734772D01*
X152762429Y-91952058D01*
X152696819Y-92016726D01*
X152636979Y-92073733D01*
X152586267Y-92120033D01*
X152548046Y-92152584D01*
X152525675Y-92168343D01*
X152522466Y-92169343D01*
X152503626Y-92161469D01*
X152465180Y-92139578D01*
X152411330Y-92106267D01*
X152346276Y-92064131D01*
X152275940Y-92016943D01*
X152204555Y-91968810D01*
X152140908Y-91926928D01*
X152089041Y-91893871D01*
X152052995Y-91872218D01*
X152036867Y-91864543D01*
X152017189Y-91871037D01*
X151979875Y-91888150D01*
X151932621Y-91912326D01*
X151927612Y-91915013D01*
X151863977Y-91946927D01*
X151820341Y-91962579D01*
X151793202Y-91962745D01*
X151779057Y-91948204D01*
X151778975Y-91948000D01*
X151771905Y-91930779D01*
X151755042Y-91889899D01*
X151729695Y-91828525D01*
X151697171Y-91749819D01*
X151658778Y-91656947D01*
X151615822Y-91553072D01*
X151574222Y-91452502D01*
X151528504Y-91341516D01*
X151486526Y-91238703D01*
X151449548Y-91147215D01*
X151418827Y-91070201D01*
X151395622Y-91010815D01*
X151381190Y-90972209D01*
X151376743Y-90957800D01*
X151387896Y-90941272D01*
X151417069Y-90914930D01*
X151455971Y-90885887D01*
X151566757Y-90794039D01*
X151653351Y-90688759D01*
X151714716Y-90572266D01*
X151749815Y-90446776D01*
X151757608Y-90314507D01*
X151751943Y-90253457D01*
X151721078Y-90126795D01*
X151667920Y-90014941D01*
X151595767Y-89919001D01*
X151507917Y-89840076D01*
X151407665Y-89779270D01*
X151298310Y-89737687D01*
X151183147Y-89716428D01*
X151065475Y-89716599D01*
X150948590Y-89739301D01*
X150835789Y-89785638D01*
X150730369Y-89856713D01*
X150686368Y-89896911D01*
X150601979Y-90000129D01*
X150543222Y-90112925D01*
X150509704Y-90232010D01*
X150501035Y-90354095D01*
X150516823Y-90475893D01*
X150556678Y-90594116D01*
X150620207Y-90705475D01*
X150707021Y-90806684D01*
X150804029Y-90885887D01*
X150844437Y-90916162D01*
X150872982Y-90942219D01*
X150883257Y-90957825D01*
X150877877Y-90974843D01*
X150862575Y-91015500D01*
X150838612Y-91076642D01*
X150807244Y-91155119D01*
X150769732Y-91247780D01*
X150727333Y-91351472D01*
X150685663Y-91452526D01*
X150639690Y-91563607D01*
X150597107Y-91666541D01*
X150559221Y-91758165D01*
X150527340Y-91835316D01*
X150502771Y-91894831D01*
X150486820Y-91933544D01*
X150480910Y-91948000D01*
X150466948Y-91962685D01*
X150439940Y-91962642D01*
X150396413Y-91947099D01*
X150332890Y-91915284D01*
X150332388Y-91915013D01*
X150284560Y-91890323D01*
X150245897Y-91872338D01*
X150224095Y-91864614D01*
X150223133Y-91864543D01*
X150206721Y-91872378D01*
X150170487Y-91894165D01*
X150118474Y-91927328D01*
X150054725Y-91969291D01*
X149984060Y-92016943D01*
X149912116Y-92065191D01*
X149847274Y-92107151D01*
X149793735Y-92140227D01*
X149755697Y-92161821D01*
X149737533Y-92169343D01*
X149720808Y-92159457D01*
X149687180Y-92131826D01*
X149640010Y-92089495D01*
X149582658Y-92035505D01*
X149518484Y-91972899D01*
X149497497Y-91951983D01*
X149280499Y-91734623D01*
X149445668Y-91492220D01*
X149495864Y-91417781D01*
X149539919Y-91350972D01*
X149575362Y-91295665D01*
X149599719Y-91255729D01*
X149610522Y-91235036D01*
X149610838Y-91233563D01*
X149605143Y-91214058D01*
X149589826Y-91174822D01*
X149567537Y-91122430D01*
X149551893Y-91087355D01*
X149522641Y-91020201D01*
X149495094Y-90952358D01*
X149473737Y-90895034D01*
X149467935Y-90877572D01*
X149451452Y-90830938D01*
X149435340Y-90794905D01*
X149426490Y-90781287D01*
X149406960Y-90772952D01*
X149364334Y-90761137D01*
X149304145Y-90747181D01*
X149231922Y-90732422D01*
X149199600Y-90726355D01*
X149117522Y-90711273D01*
X149038795Y-90696669D01*
X148971109Y-90683980D01*
X148922160Y-90674642D01*
X148912943Y-90672839D01*
X148836743Y-90657799D01*
X148836743Y-90340492D01*
X148836914Y-90236154D01*
X148837616Y-90157213D01*
X148839134Y-90100038D01*
X148841749Y-90060999D01*
X148845746Y-90036465D01*
X148851409Y-90022805D01*
X148859020Y-90016389D01*
X148862143Y-90015199D01*
X148880978Y-90010980D01*
X148922588Y-90002562D01*
X148981630Y-89990961D01*
X149052757Y-89977195D01*
X149130625Y-89962280D01*
X149209887Y-89947232D01*
X149285198Y-89933069D01*
X149351213Y-89920806D01*
X149402587Y-89911461D01*
X149433975Y-89906050D01*
X149440959Y-89905114D01*
X149447285Y-89892596D01*
X149461290Y-89859246D01*
X149480355Y-89811377D01*
X149487634Y-89792629D01*
X149516996Y-89720195D01*
X149551571Y-89640170D01*
X149582537Y-89572728D01*
X149605323Y-89521159D01*
X149620482Y-89478785D01*
X149625542Y-89452834D01*
X149624736Y-89449356D01*
X149614041Y-89432936D01*
X149589620Y-89396417D01*
X149554095Y-89343687D01*
X149510087Y-89278635D01*
X149460217Y-89205151D01*
X149450356Y-89190645D01*
X149392492Y-89104704D01*
X149349956Y-89039261D01*
X149321054Y-88991304D01*
X149304090Y-88957820D01*
X149297367Y-88935795D01*
X149299190Y-88922217D01*
X149299236Y-88922131D01*
X149313586Y-88904297D01*
X149345323Y-88869817D01*
X149391010Y-88822268D01*
X149447204Y-88765222D01*
X149510468Y-88702255D01*
X149517602Y-88695227D01*
X149597330Y-88618020D01*
X149658857Y-88561330D01*
X149703421Y-88524110D01*
X149732257Y-88505315D01*
X149744958Y-88502889D01*
X149763494Y-88513471D01*
X149801961Y-88537916D01*
X149856386Y-88573612D01*
X149922798Y-88617947D01*
X149997225Y-88668311D01*
X150014601Y-88680160D01*
X150261297Y-88848626D01*
X150372706Y-88798062D01*
X150440457Y-88768595D01*
X150513183Y-88738959D01*
X150575703Y-88715330D01*
X150578457Y-88714358D01*
X150627360Y-88696457D01*
X150665057Y-88681320D01*
X150683425Y-88672210D01*
X150683456Y-88672184D01*
X150689285Y-88655717D01*
X150699192Y-88615219D01*
X150712195Y-88555242D01*
X150727309Y-88480340D01*
X150743552Y-88395064D01*
X150744881Y-88387875D01*
X150761175Y-88300014D01*
X150776133Y-88220260D01*
X150788791Y-88153681D01*
X150798186Y-88105347D01*
X150803354Y-88080325D01*
X150803444Y-88079943D01*
X150806589Y-88069299D01*
X150812704Y-88061262D01*
X150825453Y-88055467D01*
X150848500Y-88051547D01*
X150885509Y-88049135D01*
X150940144Y-88047865D01*
X151016067Y-88047371D01*
X151116944Y-88047286D01*
X151130000Y-88047286D01*
X151233910Y-88047348D01*
G37*
X151233910Y-88047348D02*
X151312454Y-88047778D01*
X151369298Y-88048942D01*
X151408105Y-88051207D01*
X151432538Y-88054940D01*
X151446262Y-88060506D01*
X151452940Y-88068273D01*
X151456236Y-88078605D01*
X151456556Y-88079943D01*
X151461562Y-88104079D01*
X151470829Y-88151701D01*
X151483392Y-88217741D01*
X151498287Y-88297128D01*
X151514551Y-88384796D01*
X151515119Y-88387875D01*
X151531410Y-88473789D01*
X151546652Y-88549696D01*
X151559861Y-88611045D01*
X151570054Y-88653282D01*
X151576248Y-88671855D01*
X151576543Y-88672184D01*
X151594788Y-88681253D01*
X151632405Y-88696367D01*
X151681271Y-88714262D01*
X151681543Y-88714358D01*
X151743093Y-88737493D01*
X151815657Y-88766965D01*
X151884057Y-88796597D01*
X151887294Y-88798062D01*
X151998702Y-88848626D01*
X152245399Y-88680160D01*
X152321077Y-88628803D01*
X152389631Y-88582889D01*
X152447088Y-88545030D01*
X152489476Y-88517837D01*
X152512825Y-88503921D01*
X152515042Y-88502889D01*
X152532010Y-88507484D01*
X152563701Y-88529655D01*
X152611352Y-88570447D01*
X152676198Y-88630905D01*
X152742397Y-88695227D01*
X152806214Y-88758612D01*
X152863329Y-88816451D01*
X152910305Y-88865175D01*
X152943703Y-88901210D01*
X152960085Y-88920984D01*
X152960694Y-88922002D01*
X152962505Y-88935572D01*
X152955683Y-88957733D01*
X152938540Y-88991478D01*
X152909393Y-89039800D01*
X152866555Y-89105692D01*
X152809448Y-89190517D01*
X152758766Y-89265177D01*
X152713461Y-89332140D01*
X152676150Y-89387516D01*
X152649452Y-89427420D01*
X152635985Y-89447962D01*
X152635137Y-89449356D01*
X152636781Y-89469038D01*
X152649245Y-89507293D01*
X152670048Y-89556889D01*
X152677462Y-89572728D01*
X152709814Y-89643290D01*
X152744328Y-89723353D01*
X152772365Y-89792629D01*
X152792568Y-89844045D01*
X152808615Y-89883119D01*
X152817888Y-89903541D01*
X152819041Y-89905114D01*
X152836096Y-89907721D01*
X152876298Y-89914863D01*
X152934302Y-89925523D01*
X153004763Y-89938685D01*
X153082335Y-89953333D01*
X153161672Y-89968449D01*
X153237431Y-89983018D01*
X153304264Y-89996022D01*
X153356828Y-90006445D01*
X153389776Y-90013270D01*
X153397857Y-90015199D01*
X153406205Y-90019962D01*
X153412506Y-90030718D01*
X153417045Y-90051098D01*
X153420104Y-90084734D01*
X153421967Y-90135255D01*
X153422918Y-90206292D01*
X153423240Y-90301476D01*
X153423257Y-90340492D01*
X153423257Y-90657799D01*
X153347057Y-90672839D01*
X153304663Y-90680995D01*
X153241400Y-90692899D01*
X153164962Y-90707116D01*
X153083043Y-90722210D01*
X153060400Y-90726355D01*
X152984806Y-90741053D01*
X152918953Y-90755505D01*
X152868366Y-90768375D01*
X152838574Y-90778322D01*
X152833612Y-90781287D01*
X152821426Y-90802283D01*
X152803953Y-90842967D01*
X152784577Y-90895322D01*
X152780734Y-90906600D01*
X152755339Y-90976523D01*
X152723817Y-91055418D01*
X152692969Y-91126266D01*
X152692817Y-91126595D01*
X152641447Y-91237733D01*
X152810399Y-91486253D01*
X152979352Y-91734772D01*
X152762429Y-91952058D01*
X152696819Y-92016726D01*
X152636979Y-92073733D01*
X152586267Y-92120033D01*
X152548046Y-92152584D01*
X152525675Y-92168343D01*
X152522466Y-92169343D01*
X152503626Y-92161469D01*
X152465180Y-92139578D01*
X152411330Y-92106267D01*
X152346276Y-92064131D01*
X152275940Y-92016943D01*
X152204555Y-91968810D01*
X152140908Y-91926928D01*
X152089041Y-91893871D01*
X152052995Y-91872218D01*
X152036867Y-91864543D01*
X152017189Y-91871037D01*
X151979875Y-91888150D01*
X151932621Y-91912326D01*
X151927612Y-91915013D01*
X151863977Y-91946927D01*
X151820341Y-91962579D01*
X151793202Y-91962745D01*
X151779057Y-91948204D01*
X151778975Y-91948000D01*
X151771905Y-91930779D01*
X151755042Y-91889899D01*
X151729695Y-91828525D01*
X151697171Y-91749819D01*
X151658778Y-91656947D01*
X151615822Y-91553072D01*
X151574222Y-91452502D01*
X151528504Y-91341516D01*
X151486526Y-91238703D01*
X151449548Y-91147215D01*
X151418827Y-91070201D01*
X151395622Y-91010815D01*
X151381190Y-90972209D01*
X151376743Y-90957800D01*
X151387896Y-90941272D01*
X151417069Y-90914930D01*
X151455971Y-90885887D01*
X151566757Y-90794039D01*
X151653351Y-90688759D01*
X151714716Y-90572266D01*
X151749815Y-90446776D01*
X151757608Y-90314507D01*
X151751943Y-90253457D01*
X151721078Y-90126795D01*
X151667920Y-90014941D01*
X151595767Y-89919001D01*
X151507917Y-89840076D01*
X151407665Y-89779270D01*
X151298310Y-89737687D01*
X151183147Y-89716428D01*
X151065475Y-89716599D01*
X150948590Y-89739301D01*
X150835789Y-89785638D01*
X150730369Y-89856713D01*
X150686368Y-89896911D01*
X150601979Y-90000129D01*
X150543222Y-90112925D01*
X150509704Y-90232010D01*
X150501035Y-90354095D01*
X150516823Y-90475893D01*
X150556678Y-90594116D01*
X150620207Y-90705475D01*
X150707021Y-90806684D01*
X150804029Y-90885887D01*
X150844437Y-90916162D01*
X150872982Y-90942219D01*
X150883257Y-90957825D01*
X150877877Y-90974843D01*
X150862575Y-91015500D01*
X150838612Y-91076642D01*
X150807244Y-91155119D01*
X150769732Y-91247780D01*
X150727333Y-91351472D01*
X150685663Y-91452526D01*
X150639690Y-91563607D01*
X150597107Y-91666541D01*
X150559221Y-91758165D01*
X150527340Y-91835316D01*
X150502771Y-91894831D01*
X150486820Y-91933544D01*
X150480910Y-91948000D01*
X150466948Y-91962685D01*
X150439940Y-91962642D01*
X150396413Y-91947099D01*
X150332890Y-91915284D01*
X150332388Y-91915013D01*
X150284560Y-91890323D01*
X150245897Y-91872338D01*
X150224095Y-91864614D01*
X150223133Y-91864543D01*
X150206721Y-91872378D01*
X150170487Y-91894165D01*
X150118474Y-91927328D01*
X150054725Y-91969291D01*
X149984060Y-92016943D01*
X149912116Y-92065191D01*
X149847274Y-92107151D01*
X149793735Y-92140227D01*
X149755697Y-92161821D01*
X149737533Y-92169343D01*
X149720808Y-92159457D01*
X149687180Y-92131826D01*
X149640010Y-92089495D01*
X149582658Y-92035505D01*
X149518484Y-91972899D01*
X149497497Y-91951983D01*
X149280499Y-91734623D01*
X149445668Y-91492220D01*
X149495864Y-91417781D01*
X149539919Y-91350972D01*
X149575362Y-91295665D01*
X149599719Y-91255729D01*
X149610522Y-91235036D01*
X149610838Y-91233563D01*
X149605143Y-91214058D01*
X149589826Y-91174822D01*
X149567537Y-91122430D01*
X149551893Y-91087355D01*
X149522641Y-91020201D01*
X149495094Y-90952358D01*
X149473737Y-90895034D01*
X149467935Y-90877572D01*
X149451452Y-90830938D01*
X149435340Y-90794905D01*
X149426490Y-90781287D01*
X149406960Y-90772952D01*
X149364334Y-90761137D01*
X149304145Y-90747181D01*
X149231922Y-90732422D01*
X149199600Y-90726355D01*
X149117522Y-90711273D01*
X149038795Y-90696669D01*
X148971109Y-90683980D01*
X148922160Y-90674642D01*
X148912943Y-90672839D01*
X148836743Y-90657799D01*
X148836743Y-90340492D01*
X148836914Y-90236154D01*
X148837616Y-90157213D01*
X148839134Y-90100038D01*
X148841749Y-90060999D01*
X148845746Y-90036465D01*
X148851409Y-90022805D01*
X148859020Y-90016389D01*
X148862143Y-90015199D01*
X148880978Y-90010980D01*
X148922588Y-90002562D01*
X148981630Y-89990961D01*
X149052757Y-89977195D01*
X149130625Y-89962280D01*
X149209887Y-89947232D01*
X149285198Y-89933069D01*
X149351213Y-89920806D01*
X149402587Y-89911461D01*
X149433975Y-89906050D01*
X149440959Y-89905114D01*
X149447285Y-89892596D01*
X149461290Y-89859246D01*
X149480355Y-89811377D01*
X149487634Y-89792629D01*
X149516996Y-89720195D01*
X149551571Y-89640170D01*
X149582537Y-89572728D01*
X149605323Y-89521159D01*
X149620482Y-89478785D01*
X149625542Y-89452834D01*
X149624736Y-89449356D01*
X149614041Y-89432936D01*
X149589620Y-89396417D01*
X149554095Y-89343687D01*
X149510087Y-89278635D01*
X149460217Y-89205151D01*
X149450356Y-89190645D01*
X149392492Y-89104704D01*
X149349956Y-89039261D01*
X149321054Y-88991304D01*
X149304090Y-88957820D01*
X149297367Y-88935795D01*
X149299190Y-88922217D01*
X149299236Y-88922131D01*
X149313586Y-88904297D01*
X149345323Y-88869817D01*
X149391010Y-88822268D01*
X149447204Y-88765222D01*
X149510468Y-88702255D01*
X149517602Y-88695227D01*
X149597330Y-88618020D01*
X149658857Y-88561330D01*
X149703421Y-88524110D01*
X149732257Y-88505315D01*
X149744958Y-88502889D01*
X149763494Y-88513471D01*
X149801961Y-88537916D01*
X149856386Y-88573612D01*
X149922798Y-88617947D01*
X149997225Y-88668311D01*
X150014601Y-88680160D01*
X150261297Y-88848626D01*
X150372706Y-88798062D01*
X150440457Y-88768595D01*
X150513183Y-88738959D01*
X150575703Y-88715330D01*
X150578457Y-88714358D01*
X150627360Y-88696457D01*
X150665057Y-88681320D01*
X150683425Y-88672210D01*
X150683456Y-88672184D01*
X150689285Y-88655717D01*
X150699192Y-88615219D01*
X150712195Y-88555242D01*
X150727309Y-88480340D01*
X150743552Y-88395064D01*
X150744881Y-88387875D01*
X150761175Y-88300014D01*
X150776133Y-88220260D01*
X150788791Y-88153681D01*
X150798186Y-88105347D01*
X150803354Y-88080325D01*
X150803444Y-88079943D01*
X150806589Y-88069299D01*
X150812704Y-88061262D01*
X150825453Y-88055467D01*
X150848500Y-88051547D01*
X150885509Y-88049135D01*
X150940144Y-88047865D01*
X151016067Y-88047371D01*
X151116944Y-88047286D01*
X151130000Y-88047286D01*
X151233910Y-88047348D01*
G36*
X154283595Y-92771966D02*
G01*
X154341021Y-92809497D01*
X154368719Y-92843096D01*
X154390662Y-92904064D01*
X154392405Y-92952308D01*
X154388457Y-93016816D01*
X154239686Y-93081934D01*
X154167349Y-93115202D01*
X154120084Y-93141964D01*
X154095507Y-93165144D01*
X154091237Y-93187667D01*
X154104889Y-93212455D01*
X154119943Y-93228886D01*
X154163746Y-93255235D01*
X154211389Y-93257081D01*
X154255145Y-93236546D01*
X154287289Y-93195752D01*
X154293038Y-93181347D01*
X154320576Y-93136356D01*
X154352258Y-93117182D01*
X154395714Y-93100779D01*
X154395714Y-93162966D01*
X154391872Y-93205283D01*
X154376823Y-93240969D01*
X154345280Y-93281943D01*
X154340592Y-93287267D01*
X154305506Y-93323720D01*
X154275347Y-93343283D01*
X154237615Y-93352283D01*
X154206335Y-93355230D01*
X154150385Y-93355965D01*
X154110555Y-93346660D01*
X154085708Y-93332846D01*
X154046656Y-93302467D01*
X154019625Y-93269613D01*
X154002517Y-93228294D01*
X153993238Y-93172521D01*
X153989693Y-93096305D01*
X153989410Y-93057622D01*
X153990372Y-93011247D01*
X154078007Y-93011247D01*
X154079023Y-93036126D01*
X154081556Y-93040200D01*
X154098274Y-93034665D01*
X154134249Y-93020017D01*
X154182331Y-92999190D01*
X154192386Y-92994714D01*
X154253152Y-92963814D01*
X154286632Y-92936657D01*
X154293990Y-92911220D01*
X154276391Y-92885481D01*
X154261856Y-92874109D01*
X154209410Y-92851364D01*
X154160322Y-92855122D01*
X154119227Y-92882884D01*
X154090758Y-92932152D01*
X154081631Y-92971257D01*
X154078007Y-93011247D01*
X153990372Y-93011247D01*
X153991285Y-92967249D01*
X153998196Y-92900384D01*
X154011884Y-92851695D01*
X154034096Y-92815849D01*
X154066574Y-92787513D01*
X154080733Y-92778355D01*
X154145053Y-92754507D01*
X154215473Y-92753006D01*
X154283595Y-92771966D01*
G37*
X154283595Y-92771966D02*
X154341021Y-92809497D01*
X154368719Y-92843096D01*
X154390662Y-92904064D01*
X154392405Y-92952308D01*
X154388457Y-93016816D01*
X154239686Y-93081934D01*
X154167349Y-93115202D01*
X154120084Y-93141964D01*
X154095507Y-93165144D01*
X154091237Y-93187667D01*
X154104889Y-93212455D01*
X154119943Y-93228886D01*
X154163746Y-93255235D01*
X154211389Y-93257081D01*
X154255145Y-93236546D01*
X154287289Y-93195752D01*
X154293038Y-93181347D01*
X154320576Y-93136356D01*
X154352258Y-93117182D01*
X154395714Y-93100779D01*
X154395714Y-93162966D01*
X154391872Y-93205283D01*
X154376823Y-93240969D01*
X154345280Y-93281943D01*
X154340592Y-93287267D01*
X154305506Y-93323720D01*
X154275347Y-93343283D01*
X154237615Y-93352283D01*
X154206335Y-93355230D01*
X154150385Y-93355965D01*
X154110555Y-93346660D01*
X154085708Y-93332846D01*
X154046656Y-93302467D01*
X154019625Y-93269613D01*
X154002517Y-93228294D01*
X153993238Y-93172521D01*
X153989693Y-93096305D01*
X153989410Y-93057622D01*
X153990372Y-93011247D01*
X154078007Y-93011247D01*
X154079023Y-93036126D01*
X154081556Y-93040200D01*
X154098274Y-93034665D01*
X154134249Y-93020017D01*
X154182331Y-92999190D01*
X154192386Y-92994714D01*
X154253152Y-92963814D01*
X154286632Y-92936657D01*
X154293990Y-92911220D01*
X154276391Y-92885481D01*
X154261856Y-92874109D01*
X154209410Y-92851364D01*
X154160322Y-92855122D01*
X154119227Y-92882884D01*
X154090758Y-92932152D01*
X154081631Y-92971257D01*
X154078007Y-93011247D01*
X153990372Y-93011247D01*
X153991285Y-92967249D01*
X153998196Y-92900384D01*
X154011884Y-92851695D01*
X154034096Y-92815849D01*
X154066574Y-92787513D01*
X154080733Y-92778355D01*
X154145053Y-92754507D01*
X154215473Y-92753006D01*
X154283595Y-92771966D01*
G36*
X153782600Y-92763752D02*
G01*
X153799948Y-92771334D01*
X153841356Y-92804128D01*
X153876765Y-92851547D01*
X153898664Y-92902151D01*
X153902229Y-92927098D01*
X153890279Y-92961927D01*
X153864067Y-92980357D01*
X153835964Y-92991516D01*
X153823095Y-92993572D01*
X153816829Y-92978649D01*
X153804456Y-92946175D01*
X153799028Y-92931502D01*
X153768590Y-92880744D01*
X153724520Y-92855427D01*
X153668010Y-92856206D01*
X153663825Y-92857203D01*
X153633655Y-92871507D01*
X153611476Y-92899393D01*
X153596327Y-92944287D01*
X153587250Y-93009615D01*
X153583286Y-93098804D01*
X153582914Y-93146261D01*
X153582730Y-93221071D01*
X153581522Y-93272069D01*
X153578309Y-93304471D01*
X153572109Y-93323495D01*
X153561940Y-93334356D01*
X153546819Y-93342272D01*
X153545946Y-93342670D01*
X153516828Y-93354981D01*
X153502403Y-93359514D01*
X153500186Y-93345809D01*
X153498289Y-93307925D01*
X153496847Y-93250715D01*
X153495998Y-93179027D01*
X153495829Y-93126565D01*
X153496692Y-93025047D01*
X153500070Y-92948032D01*
X153507142Y-92891023D01*
X153519088Y-92849526D01*
X153537090Y-92819043D01*
X153562327Y-92795080D01*
X153587247Y-92778355D01*
X153647171Y-92756097D01*
X153716911Y-92751076D01*
X153782600Y-92763752D01*
G37*
X153782600Y-92763752D02*
X153799948Y-92771334D01*
X153841356Y-92804128D01*
X153876765Y-92851547D01*
X153898664Y-92902151D01*
X153902229Y-92927098D01*
X153890279Y-92961927D01*
X153864067Y-92980357D01*
X153835964Y-92991516D01*
X153823095Y-92993572D01*
X153816829Y-92978649D01*
X153804456Y-92946175D01*
X153799028Y-92931502D01*
X153768590Y-92880744D01*
X153724520Y-92855427D01*
X153668010Y-92856206D01*
X153663825Y-92857203D01*
X153633655Y-92871507D01*
X153611476Y-92899393D01*
X153596327Y-92944287D01*
X153587250Y-93009615D01*
X153583286Y-93098804D01*
X153582914Y-93146261D01*
X153582730Y-93221071D01*
X153581522Y-93272069D01*
X153578309Y-93304471D01*
X153572109Y-93323495D01*
X153561940Y-93334356D01*
X153546819Y-93342272D01*
X153545946Y-93342670D01*
X153516828Y-93354981D01*
X153502403Y-93359514D01*
X153500186Y-93345809D01*
X153498289Y-93307925D01*
X153496847Y-93250715D01*
X153495998Y-93179027D01*
X153495829Y-93126565D01*
X153496692Y-93025047D01*
X153500070Y-92948032D01*
X153507142Y-92891023D01*
X153519088Y-92849526D01*
X153537090Y-92819043D01*
X153562327Y-92795080D01*
X153587247Y-92778355D01*
X153647171Y-92756097D01*
X153716911Y-92751076D01*
X153782600Y-92763752D01*
G36*
X153274876Y-92761335D02*
G01*
X153316667Y-92780344D01*
X153349469Y-92803378D01*
X153373503Y-92829133D01*
X153390097Y-92862358D01*
X153400577Y-92907800D01*
X153406271Y-92970207D01*
X153408507Y-93054327D01*
X153408743Y-93109721D01*
X153408743Y-93325826D01*
X153371774Y-93342670D01*
X153342656Y-93354981D01*
X153328231Y-93359514D01*
X153325472Y-93346025D01*
X153323282Y-93309653D01*
X153321942Y-93256542D01*
X153321657Y-93214372D01*
X153320434Y-93153447D01*
X153317136Y-93105115D01*
X153312321Y-93075518D01*
X153308496Y-93069229D01*
X153282783Y-93075652D01*
X153242418Y-93092125D01*
X153195679Y-93114458D01*
X153150845Y-93138457D01*
X153116193Y-93159930D01*
X153100002Y-93174685D01*
X153099938Y-93174845D01*
X153101330Y-93202152D01*
X153113818Y-93228219D01*
X153135743Y-93249392D01*
X153167743Y-93256474D01*
X153195092Y-93255649D01*
X153233826Y-93255042D01*
X153254158Y-93264116D01*
X153266369Y-93288092D01*
X153267909Y-93292613D01*
X153273203Y-93326806D01*
X153259047Y-93347568D01*
X153222148Y-93357462D01*
X153182289Y-93359292D01*
X153110562Y-93345727D01*
X153073432Y-93326355D01*
X153027576Y-93280845D01*
X153003256Y-93224983D01*
X153001073Y-93165957D01*
X153021629Y-93110953D01*
X153052549Y-93076486D01*
X153083420Y-93057189D01*
X153131942Y-93032759D01*
X153188485Y-93007985D01*
X153197910Y-93004199D01*
X153260019Y-92976791D01*
X153295822Y-92952634D01*
X153307337Y-92928619D01*
X153296580Y-92901635D01*
X153278114Y-92880543D01*
X153234469Y-92854572D01*
X153186446Y-92852624D01*
X153142406Y-92872637D01*
X153110709Y-92912551D01*
X153106549Y-92922848D01*
X153082327Y-92960724D01*
X153046965Y-92988842D01*
X153002343Y-93011917D01*
X153002343Y-92946485D01*
X153004969Y-92906506D01*
X153016230Y-92874997D01*
X153041199Y-92841378D01*
X153065169Y-92815484D01*
X153102441Y-92778817D01*
X153131401Y-92759121D01*
X153162505Y-92751220D01*
X153197713Y-92749914D01*
X153274876Y-92761335D01*
G37*
X153274876Y-92761335D02*
X153316667Y-92780344D01*
X153349469Y-92803378D01*
X153373503Y-92829133D01*
X153390097Y-92862358D01*
X153400577Y-92907800D01*
X153406271Y-92970207D01*
X153408507Y-93054327D01*
X153408743Y-93109721D01*
X153408743Y-93325826D01*
X153371774Y-93342670D01*
X153342656Y-93354981D01*
X153328231Y-93359514D01*
X153325472Y-93346025D01*
X153323282Y-93309653D01*
X153321942Y-93256542D01*
X153321657Y-93214372D01*
X153320434Y-93153447D01*
X153317136Y-93105115D01*
X153312321Y-93075518D01*
X153308496Y-93069229D01*
X153282783Y-93075652D01*
X153242418Y-93092125D01*
X153195679Y-93114458D01*
X153150845Y-93138457D01*
X153116193Y-93159930D01*
X153100002Y-93174685D01*
X153099938Y-93174845D01*
X153101330Y-93202152D01*
X153113818Y-93228219D01*
X153135743Y-93249392D01*
X153167743Y-93256474D01*
X153195092Y-93255649D01*
X153233826Y-93255042D01*
X153254158Y-93264116D01*
X153266369Y-93288092D01*
X153267909Y-93292613D01*
X153273203Y-93326806D01*
X153259047Y-93347568D01*
X153222148Y-93357462D01*
X153182289Y-93359292D01*
X153110562Y-93345727D01*
X153073432Y-93326355D01*
X153027576Y-93280845D01*
X153003256Y-93224983D01*
X153001073Y-93165957D01*
X153021629Y-93110953D01*
X153052549Y-93076486D01*
X153083420Y-93057189D01*
X153131942Y-93032759D01*
X153188485Y-93007985D01*
X153197910Y-93004199D01*
X153260019Y-92976791D01*
X153295822Y-92952634D01*
X153307337Y-92928619D01*
X153296580Y-92901635D01*
X153278114Y-92880543D01*
X153234469Y-92854572D01*
X153186446Y-92852624D01*
X153142406Y-92872637D01*
X153110709Y-92912551D01*
X153106549Y-92922848D01*
X153082327Y-92960724D01*
X153046965Y-92988842D01*
X153002343Y-93011917D01*
X153002343Y-92946485D01*
X153004969Y-92906506D01*
X153016230Y-92874997D01*
X153041199Y-92841378D01*
X153065169Y-92815484D01*
X153102441Y-92778817D01*
X153131401Y-92759121D01*
X153162505Y-92751220D01*
X153197713Y-92749914D01*
X153274876Y-92761335D01*
G36*
X152909833Y-92763663D02*
G01*
X152912048Y-92801850D01*
X152913784Y-92859886D01*
X152914899Y-92933180D01*
X152915257Y-93010055D01*
X152915257Y-93270196D01*
X152869326Y-93316127D01*
X152837675Y-93344429D01*
X152809890Y-93355893D01*
X152771915Y-93355168D01*
X152756840Y-93353321D01*
X152709726Y-93347948D01*
X152670756Y-93344869D01*
X152661257Y-93344585D01*
X152629233Y-93346445D01*
X152583432Y-93351114D01*
X152565674Y-93353321D01*
X152522057Y-93356735D01*
X152492745Y-93349320D01*
X152463680Y-93326427D01*
X152453188Y-93316127D01*
X152407257Y-93270196D01*
X152407257Y-92783602D01*
X152444226Y-92766758D01*
X152476059Y-92754282D01*
X152494683Y-92749914D01*
X152499458Y-92763718D01*
X152503921Y-92802286D01*
X152507775Y-92861356D01*
X152510722Y-92936663D01*
X152512143Y-93000286D01*
X152516114Y-93250657D01*
X152550759Y-93255556D01*
X152582268Y-93252131D01*
X152597708Y-93241041D01*
X152602023Y-93220308D01*
X152605708Y-93176145D01*
X152608469Y-93114146D01*
X152610012Y-93039909D01*
X152610235Y-93001706D01*
X152610457Y-92781783D01*
X152656166Y-92765849D01*
X152688518Y-92755015D01*
X152706115Y-92749962D01*
X152706623Y-92749914D01*
X152708388Y-92763648D01*
X152710329Y-92801730D01*
X152712282Y-92859482D01*
X152714084Y-92932227D01*
X152715343Y-93000286D01*
X152719314Y-93250657D01*
X152806400Y-93250657D01*
X152810396Y-93022240D01*
X152814392Y-92793822D01*
X152856847Y-92771868D01*
X152888192Y-92756793D01*
X152906744Y-92749951D01*
X152907279Y-92749914D01*
X152909833Y-92763663D01*
G37*
X152909833Y-92763663D02*
X152912048Y-92801850D01*
X152913784Y-92859886D01*
X152914899Y-92933180D01*
X152915257Y-93010055D01*
X152915257Y-93270196D01*
X152869326Y-93316127D01*
X152837675Y-93344429D01*
X152809890Y-93355893D01*
X152771915Y-93355168D01*
X152756840Y-93353321D01*
X152709726Y-93347948D01*
X152670756Y-93344869D01*
X152661257Y-93344585D01*
X152629233Y-93346445D01*
X152583432Y-93351114D01*
X152565674Y-93353321D01*
X152522057Y-93356735D01*
X152492745Y-93349320D01*
X152463680Y-93326427D01*
X152453188Y-93316127D01*
X152407257Y-93270196D01*
X152407257Y-92783602D01*
X152444226Y-92766758D01*
X152476059Y-92754282D01*
X152494683Y-92749914D01*
X152499458Y-92763718D01*
X152503921Y-92802286D01*
X152507775Y-92861356D01*
X152510722Y-92936663D01*
X152512143Y-93000286D01*
X152516114Y-93250657D01*
X152550759Y-93255556D01*
X152582268Y-93252131D01*
X152597708Y-93241041D01*
X152602023Y-93220308D01*
X152605708Y-93176145D01*
X152608469Y-93114146D01*
X152610012Y-93039909D01*
X152610235Y-93001706D01*
X152610457Y-92781783D01*
X152656166Y-92765849D01*
X152688518Y-92755015D01*
X152706115Y-92749962D01*
X152706623Y-92749914D01*
X152708388Y-92763648D01*
X152710329Y-92801730D01*
X152712282Y-92859482D01*
X152714084Y-92932227D01*
X152715343Y-93000286D01*
X152719314Y-93250657D01*
X152806400Y-93250657D01*
X152810396Y-93022240D01*
X152814392Y-92793822D01*
X152856847Y-92771868D01*
X152888192Y-92756793D01*
X152906744Y-92749951D01*
X152907279Y-92749914D01*
X152909833Y-92763663D01*
G36*
X152320117Y-92870358D02*
G01*
X152319933Y-92978837D01*
X152319219Y-93062287D01*
X152317675Y-93124704D01*
X152315001Y-93170085D01*
X152310894Y-93202429D01*
X152305055Y-93225733D01*
X152297182Y-93243995D01*
X152291221Y-93254418D01*
X152241855Y-93310945D01*
X152179264Y-93346377D01*
X152110013Y-93359090D01*
X152040668Y-93347463D01*
X151999375Y-93326568D01*
X151956025Y-93290422D01*
X151926481Y-93246276D01*
X151908655Y-93188462D01*
X151900463Y-93111313D01*
X151899302Y-93054714D01*
X151899458Y-93050647D01*
X152000857Y-93050647D01*
X152001476Y-93115550D01*
X152004314Y-93158514D01*
X152010840Y-93186622D01*
X152022523Y-93206953D01*
X152036483Y-93222288D01*
X152083365Y-93251890D01*
X152133701Y-93254419D01*
X152181276Y-93229705D01*
X152184979Y-93226356D01*
X152200783Y-93208935D01*
X152210693Y-93188209D01*
X152216058Y-93157362D01*
X152218228Y-93109577D01*
X152218571Y-93056748D01*
X152217827Y-92990381D01*
X152214748Y-92946106D01*
X152208061Y-92917009D01*
X152196496Y-92896173D01*
X152187013Y-92885107D01*
X152142960Y-92857198D01*
X152092224Y-92853843D01*
X152043796Y-92875159D01*
X152034450Y-92883073D01*
X152018540Y-92900647D01*
X152008610Y-92921587D01*
X152003278Y-92952782D01*
X152001163Y-93001122D01*
X152000857Y-93050647D01*
X151899458Y-93050647D01*
X151902810Y-92963568D01*
X151914726Y-92895086D01*
X151937135Y-92843600D01*
X151972124Y-92803443D01*
X151999375Y-92782861D01*
X152048907Y-92760625D01*
X152106316Y-92750304D01*
X152159682Y-92753067D01*
X152189543Y-92764212D01*
X152201261Y-92767383D01*
X152209037Y-92755557D01*
X152214465Y-92723866D01*
X152218571Y-92675593D01*
X152223067Y-92621829D01*
X152229313Y-92589482D01*
X152240676Y-92570985D01*
X152260528Y-92558770D01*
X152273000Y-92553362D01*
X152320171Y-92533601D01*
X152320117Y-92870358D01*
G37*
X152320117Y-92870358D02*
X152319933Y-92978837D01*
X152319219Y-93062287D01*
X152317675Y-93124704D01*
X152315001Y-93170085D01*
X152310894Y-93202429D01*
X152305055Y-93225733D01*
X152297182Y-93243995D01*
X152291221Y-93254418D01*
X152241855Y-93310945D01*
X152179264Y-93346377D01*
X152110013Y-93359090D01*
X152040668Y-93347463D01*
X151999375Y-93326568D01*
X151956025Y-93290422D01*
X151926481Y-93246276D01*
X151908655Y-93188462D01*
X151900463Y-93111313D01*
X151899302Y-93054714D01*
X151899458Y-93050647D01*
X152000857Y-93050647D01*
X152001476Y-93115550D01*
X152004314Y-93158514D01*
X152010840Y-93186622D01*
X152022523Y-93206953D01*
X152036483Y-93222288D01*
X152083365Y-93251890D01*
X152133701Y-93254419D01*
X152181276Y-93229705D01*
X152184979Y-93226356D01*
X152200783Y-93208935D01*
X152210693Y-93188209D01*
X152216058Y-93157362D01*
X152218228Y-93109577D01*
X152218571Y-93056748D01*
X152217827Y-92990381D01*
X152214748Y-92946106D01*
X152208061Y-92917009D01*
X152196496Y-92896173D01*
X152187013Y-92885107D01*
X152142960Y-92857198D01*
X152092224Y-92853843D01*
X152043796Y-92875159D01*
X152034450Y-92883073D01*
X152018540Y-92900647D01*
X152008610Y-92921587D01*
X152003278Y-92952782D01*
X152001163Y-93001122D01*
X152000857Y-93050647D01*
X151899458Y-93050647D01*
X151902810Y-92963568D01*
X151914726Y-92895086D01*
X151937135Y-92843600D01*
X151972124Y-92803443D01*
X151999375Y-92782861D01*
X152048907Y-92760625D01*
X152106316Y-92750304D01*
X152159682Y-92753067D01*
X152189543Y-92764212D01*
X152201261Y-92767383D01*
X152209037Y-92755557D01*
X152214465Y-92723866D01*
X152218571Y-92675593D01*
X152223067Y-92621829D01*
X152229313Y-92589482D01*
X152240676Y-92570985D01*
X152260528Y-92558770D01*
X152273000Y-92553362D01*
X152320171Y-92533601D01*
X152320117Y-92870358D01*
G36*
X151659926Y-92754755D02*
G01*
X151725858Y-92779084D01*
X151779273Y-92822117D01*
X151800164Y-92852409D01*
X151822939Y-92907994D01*
X151822466Y-92948186D01*
X151798562Y-92975217D01*
X151789717Y-92979813D01*
X151751530Y-92994144D01*
X151732028Y-92990472D01*
X151725422Y-92966407D01*
X151725086Y-92953114D01*
X151712992Y-92904210D01*
X151681471Y-92869999D01*
X151637659Y-92853476D01*
X151588695Y-92857634D01*
X151548894Y-92879227D01*
X151535450Y-92891544D01*
X151525921Y-92906487D01*
X151519485Y-92929075D01*
X151515317Y-92964328D01*
X151512597Y-93017266D01*
X151510502Y-93092907D01*
X151509960Y-93116857D01*
X151507981Y-93198790D01*
X151505731Y-93256455D01*
X151502357Y-93294608D01*
X151497006Y-93318004D01*
X151488824Y-93331398D01*
X151476959Y-93339545D01*
X151469362Y-93343144D01*
X151437102Y-93355452D01*
X151418111Y-93359514D01*
X151411836Y-93345948D01*
X151408006Y-93304934D01*
X151406600Y-93235999D01*
X151407598Y-93138669D01*
X151407908Y-93123657D01*
X151410101Y-93034859D01*
X151412693Y-92970019D01*
X151416382Y-92924067D01*
X151421864Y-92891935D01*
X151429835Y-92868553D01*
X151440993Y-92848852D01*
X151446830Y-92840410D01*
X151480296Y-92803057D01*
X151517727Y-92774003D01*
X151522309Y-92771467D01*
X151589426Y-92751443D01*
X151659926Y-92754755D01*
G37*
X151659926Y-92754755D02*
X151725858Y-92779084D01*
X151779273Y-92822117D01*
X151800164Y-92852409D01*
X151822939Y-92907994D01*
X151822466Y-92948186D01*
X151798562Y-92975217D01*
X151789717Y-92979813D01*
X151751530Y-92994144D01*
X151732028Y-92990472D01*
X151725422Y-92966407D01*
X151725086Y-92953114D01*
X151712992Y-92904210D01*
X151681471Y-92869999D01*
X151637659Y-92853476D01*
X151588695Y-92857634D01*
X151548894Y-92879227D01*
X151535450Y-92891544D01*
X151525921Y-92906487D01*
X151519485Y-92929075D01*
X151515317Y-92964328D01*
X151512597Y-93017266D01*
X151510502Y-93092907D01*
X151509960Y-93116857D01*
X151507981Y-93198790D01*
X151505731Y-93256455D01*
X151502357Y-93294608D01*
X151497006Y-93318004D01*
X151488824Y-93331398D01*
X151476959Y-93339545D01*
X151469362Y-93343144D01*
X151437102Y-93355452D01*
X151418111Y-93359514D01*
X151411836Y-93345948D01*
X151408006Y-93304934D01*
X151406600Y-93235999D01*
X151407598Y-93138669D01*
X151407908Y-93123657D01*
X151410101Y-93034859D01*
X151412693Y-92970019D01*
X151416382Y-92924067D01*
X151421864Y-92891935D01*
X151429835Y-92868553D01*
X151440993Y-92848852D01*
X151446830Y-92840410D01*
X151480296Y-92803057D01*
X151517727Y-92774003D01*
X151522309Y-92771467D01*
X151589426Y-92751443D01*
X151659926Y-92754755D01*
G36*
X151169744Y-92755968D02*
G01*
X151226616Y-92777087D01*
X151227267Y-92777493D01*
X151262440Y-92803380D01*
X151288407Y-92833633D01*
X151306670Y-92873058D01*
X151318732Y-92926462D01*
X151326096Y-92998651D01*
X151330264Y-93094432D01*
X151330629Y-93108078D01*
X151335876Y-93313842D01*
X151291716Y-93336678D01*
X151259763Y-93352110D01*
X151240470Y-93359423D01*
X151239578Y-93359514D01*
X151236239Y-93346022D01*
X151233587Y-93309626D01*
X151231956Y-93256452D01*
X151231600Y-93213393D01*
X151231592Y-93143641D01*
X151228403Y-93099837D01*
X151217288Y-93078944D01*
X151193501Y-93077925D01*
X151152296Y-93093741D01*
X151090086Y-93122815D01*
X151044341Y-93146963D01*
X151020813Y-93167913D01*
X151013896Y-93190747D01*
X151013886Y-93191877D01*
X151025299Y-93231212D01*
X151059092Y-93252462D01*
X151110809Y-93255539D01*
X151148061Y-93255006D01*
X151167703Y-93265735D01*
X151179952Y-93291505D01*
X151187002Y-93324337D01*
X151176842Y-93342966D01*
X151173017Y-93345632D01*
X151137001Y-93356340D01*
X151086566Y-93357856D01*
X151034626Y-93350759D01*
X150997822Y-93337788D01*
X150946938Y-93294585D01*
X150918014Y-93234446D01*
X150912286Y-93187462D01*
X150916657Y-93145082D01*
X150932475Y-93110488D01*
X150963797Y-93079763D01*
X151014678Y-93048990D01*
X151089176Y-93014252D01*
X151093714Y-93012288D01*
X151160821Y-92981287D01*
X151202232Y-92955862D01*
X151219981Y-92933014D01*
X151216107Y-92909745D01*
X151192643Y-92883056D01*
X151185627Y-92876914D01*
X151138630Y-92853100D01*
X151089933Y-92854103D01*
X151047522Y-92877451D01*
X151019384Y-92920675D01*
X151016769Y-92929160D01*
X150991308Y-92970308D01*
X150959001Y-92990128D01*
X150912286Y-93009770D01*
X150912286Y-92958950D01*
X150926496Y-92885082D01*
X150968675Y-92817327D01*
X150990624Y-92794661D01*
X151040517Y-92765569D01*
X151103967Y-92752400D01*
X151169744Y-92755968D01*
G37*
X151169744Y-92755968D02*
X151226616Y-92777087D01*
X151227267Y-92777493D01*
X151262440Y-92803380D01*
X151288407Y-92833633D01*
X151306670Y-92873058D01*
X151318732Y-92926462D01*
X151326096Y-92998651D01*
X151330264Y-93094432D01*
X151330629Y-93108078D01*
X151335876Y-93313842D01*
X151291716Y-93336678D01*
X151259763Y-93352110D01*
X151240470Y-93359423D01*
X151239578Y-93359514D01*
X151236239Y-93346022D01*
X151233587Y-93309626D01*
X151231956Y-93256452D01*
X151231600Y-93213393D01*
X151231592Y-93143641D01*
X151228403Y-93099837D01*
X151217288Y-93078944D01*
X151193501Y-93077925D01*
X151152296Y-93093741D01*
X151090086Y-93122815D01*
X151044341Y-93146963D01*
X151020813Y-93167913D01*
X151013896Y-93190747D01*
X151013886Y-93191877D01*
X151025299Y-93231212D01*
X151059092Y-93252462D01*
X151110809Y-93255539D01*
X151148061Y-93255006D01*
X151167703Y-93265735D01*
X151179952Y-93291505D01*
X151187002Y-93324337D01*
X151176842Y-93342966D01*
X151173017Y-93345632D01*
X151137001Y-93356340D01*
X151086566Y-93357856D01*
X151034626Y-93350759D01*
X150997822Y-93337788D01*
X150946938Y-93294585D01*
X150918014Y-93234446D01*
X150912286Y-93187462D01*
X150916657Y-93145082D01*
X150932475Y-93110488D01*
X150963797Y-93079763D01*
X151014678Y-93048990D01*
X151089176Y-93014252D01*
X151093714Y-93012288D01*
X151160821Y-92981287D01*
X151202232Y-92955862D01*
X151219981Y-92933014D01*
X151216107Y-92909745D01*
X151192643Y-92883056D01*
X151185627Y-92876914D01*
X151138630Y-92853100D01*
X151089933Y-92854103D01*
X151047522Y-92877451D01*
X151019384Y-92920675D01*
X151016769Y-92929160D01*
X150991308Y-92970308D01*
X150959001Y-92990128D01*
X150912286Y-93009770D01*
X150912286Y-92958950D01*
X150926496Y-92885082D01*
X150968675Y-92817327D01*
X150990624Y-92794661D01*
X151040517Y-92765569D01*
X151103967Y-92752400D01*
X151169744Y-92755968D01*
G36*
X150505886Y-92656289D02*
G01*
X150510139Y-92715613D01*
X150515025Y-92750572D01*
X150521795Y-92765820D01*
X150531702Y-92766015D01*
X150534914Y-92764195D01*
X150577644Y-92751015D01*
X150633227Y-92751785D01*
X150689737Y-92765333D01*
X150725082Y-92782861D01*
X150761321Y-92810861D01*
X150787813Y-92842549D01*
X150805999Y-92882813D01*
X150817322Y-92936543D01*
X150823222Y-93008626D01*
X150825143Y-93103951D01*
X150825177Y-93122237D01*
X150825200Y-93327646D01*
X150779491Y-93343580D01*
X150747027Y-93354420D01*
X150729215Y-93359468D01*
X150728691Y-93359514D01*
X150726937Y-93345828D01*
X150725444Y-93308076D01*
X150724326Y-93251224D01*
X150723697Y-93180234D01*
X150723600Y-93137073D01*
X150723398Y-93051973D01*
X150722358Y-92990981D01*
X150719831Y-92949177D01*
X150715164Y-92921642D01*
X150707707Y-92903456D01*
X150696811Y-92889698D01*
X150690007Y-92883073D01*
X150643272Y-92856375D01*
X150592272Y-92854375D01*
X150546001Y-92876955D01*
X150537444Y-92885107D01*
X150524893Y-92900436D01*
X150516188Y-92918618D01*
X150510631Y-92944909D01*
X150507526Y-92984562D01*
X150506176Y-93042832D01*
X150505886Y-93123173D01*
X150505886Y-93327646D01*
X150460177Y-93343580D01*
X150427713Y-93354420D01*
X150409901Y-93359468D01*
X150409377Y-93359514D01*
X150408037Y-93345623D01*
X150406828Y-93306439D01*
X150405801Y-93245700D01*
X150405002Y-93167141D01*
X150404481Y-93074498D01*
X150404286Y-92971509D01*
X150404286Y-92574342D01*
X150451457Y-92554444D01*
X150498629Y-92534547D01*
X150505886Y-92656289D01*
G37*
X150505886Y-92656289D02*
X150510139Y-92715613D01*
X150515025Y-92750572D01*
X150521795Y-92765820D01*
X150531702Y-92766015D01*
X150534914Y-92764195D01*
X150577644Y-92751015D01*
X150633227Y-92751785D01*
X150689737Y-92765333D01*
X150725082Y-92782861D01*
X150761321Y-92810861D01*
X150787813Y-92842549D01*
X150805999Y-92882813D01*
X150817322Y-92936543D01*
X150823222Y-93008626D01*
X150825143Y-93103951D01*
X150825177Y-93122237D01*
X150825200Y-93327646D01*
X150779491Y-93343580D01*
X150747027Y-93354420D01*
X150729215Y-93359468D01*
X150728691Y-93359514D01*
X150726937Y-93345828D01*
X150725444Y-93308076D01*
X150724326Y-93251224D01*
X150723697Y-93180234D01*
X150723600Y-93137073D01*
X150723398Y-93051973D01*
X150722358Y-92990981D01*
X150719831Y-92949177D01*
X150715164Y-92921642D01*
X150707707Y-92903456D01*
X150696811Y-92889698D01*
X150690007Y-92883073D01*
X150643272Y-92856375D01*
X150592272Y-92854375D01*
X150546001Y-92876955D01*
X150537444Y-92885107D01*
X150524893Y-92900436D01*
X150516188Y-92918618D01*
X150510631Y-92944909D01*
X150507526Y-92984562D01*
X150506176Y-93042832D01*
X150505886Y-93123173D01*
X150505886Y-93327646D01*
X150460177Y-93343580D01*
X150427713Y-93354420D01*
X150409901Y-93359468D01*
X150409377Y-93359514D01*
X150408037Y-93345623D01*
X150406828Y-93306439D01*
X150405801Y-93245700D01*
X150405002Y-93167141D01*
X150404481Y-93074498D01*
X150404286Y-92971509D01*
X150404286Y-92574342D01*
X150451457Y-92554444D01*
X150498629Y-92534547D01*
X150505886Y-92656289D01*
G36*
X149298303Y-92736239D02*
G01*
X149355527Y-92774735D01*
X149399749Y-92830335D01*
X149426167Y-92901086D01*
X149431510Y-92953162D01*
X149430903Y-92974893D01*
X149425822Y-92991531D01*
X149411855Y-93006437D01*
X149384589Y-93022973D01*
X149339612Y-93044498D01*
X149272511Y-93074374D01*
X149272171Y-93074524D01*
X149210407Y-93102813D01*
X149159759Y-93127933D01*
X149125404Y-93147179D01*
X149112518Y-93157848D01*
X149112514Y-93157934D01*
X149123872Y-93181166D01*
X149150431Y-93206774D01*
X149180923Y-93225221D01*
X149196370Y-93228886D01*
X149238515Y-93216212D01*
X149274808Y-93184471D01*
X149292517Y-93149572D01*
X149309552Y-93123845D01*
X149342922Y-93094546D01*
X149382149Y-93069235D01*
X149416756Y-93055471D01*
X149423993Y-93054714D01*
X149432139Y-93067160D01*
X149432630Y-93098972D01*
X149426643Y-93141866D01*
X149415357Y-93187558D01*
X149399950Y-93227761D01*
X149399171Y-93229322D01*
X149352804Y-93294062D01*
X149292711Y-93338097D01*
X149224465Y-93359711D01*
X149153638Y-93357185D01*
X149085804Y-93328804D01*
X149082788Y-93326808D01*
X149029427Y-93278448D01*
X148994340Y-93215352D01*
X148974922Y-93132387D01*
X148972316Y-93109078D01*
X148967701Y-92999055D01*
X148973233Y-92947748D01*
X149112514Y-92947748D01*
X149114324Y-92979753D01*
X149124222Y-92989093D01*
X149148898Y-92982105D01*
X149187795Y-92965587D01*
X149231275Y-92944881D01*
X149232356Y-92944333D01*
X149269209Y-92924949D01*
X149284000Y-92912013D01*
X149280353Y-92898451D01*
X149264995Y-92880632D01*
X149225923Y-92854845D01*
X149183846Y-92852950D01*
X149146103Y-92871717D01*
X149120034Y-92907915D01*
X149112514Y-92947748D01*
X148973233Y-92947748D01*
X148977194Y-92911027D01*
X149001550Y-92841212D01*
X149035456Y-92792302D01*
X149096653Y-92742878D01*
X149164063Y-92718359D01*
X149232880Y-92716797D01*
X149298303Y-92736239D01*
G37*
X149298303Y-92736239D02*
X149355527Y-92774735D01*
X149399749Y-92830335D01*
X149426167Y-92901086D01*
X149431510Y-92953162D01*
X149430903Y-92974893D01*
X149425822Y-92991531D01*
X149411855Y-93006437D01*
X149384589Y-93022973D01*
X149339612Y-93044498D01*
X149272511Y-93074374D01*
X149272171Y-93074524D01*
X149210407Y-93102813D01*
X149159759Y-93127933D01*
X149125404Y-93147179D01*
X149112518Y-93157848D01*
X149112514Y-93157934D01*
X149123872Y-93181166D01*
X149150431Y-93206774D01*
X149180923Y-93225221D01*
X149196370Y-93228886D01*
X149238515Y-93216212D01*
X149274808Y-93184471D01*
X149292517Y-93149572D01*
X149309552Y-93123845D01*
X149342922Y-93094546D01*
X149382149Y-93069235D01*
X149416756Y-93055471D01*
X149423993Y-93054714D01*
X149432139Y-93067160D01*
X149432630Y-93098972D01*
X149426643Y-93141866D01*
X149415357Y-93187558D01*
X149399950Y-93227761D01*
X149399171Y-93229322D01*
X149352804Y-93294062D01*
X149292711Y-93338097D01*
X149224465Y-93359711D01*
X149153638Y-93357185D01*
X149085804Y-93328804D01*
X149082788Y-93326808D01*
X149029427Y-93278448D01*
X148994340Y-93215352D01*
X148974922Y-93132387D01*
X148972316Y-93109078D01*
X148967701Y-92999055D01*
X148973233Y-92947748D01*
X149112514Y-92947748D01*
X149114324Y-92979753D01*
X149124222Y-92989093D01*
X149148898Y-92982105D01*
X149187795Y-92965587D01*
X149231275Y-92944881D01*
X149232356Y-92944333D01*
X149269209Y-92924949D01*
X149284000Y-92912013D01*
X149280353Y-92898451D01*
X149264995Y-92880632D01*
X149225923Y-92854845D01*
X149183846Y-92852950D01*
X149146103Y-92871717D01*
X149120034Y-92907915D01*
X149112514Y-92947748D01*
X148973233Y-92947748D01*
X148977194Y-92911027D01*
X149001550Y-92841212D01*
X149035456Y-92792302D01*
X149096653Y-92742878D01*
X149164063Y-92718359D01*
X149232880Y-92716797D01*
X149298303Y-92736239D01*
G36*
X148171115Y-92726962D02*
G01*
X148239145Y-92762733D01*
X148289351Y-92820301D01*
X148307185Y-92857312D01*
X148321063Y-92912882D01*
X148328167Y-92983096D01*
X148328840Y-93059727D01*
X148323427Y-93134552D01*
X148312270Y-93199342D01*
X148295714Y-93245873D01*
X148290626Y-93253887D01*
X148230355Y-93313707D01*
X148158769Y-93349535D01*
X148081092Y-93360020D01*
X148002548Y-93343810D01*
X147980689Y-93334092D01*
X147938122Y-93304143D01*
X147900763Y-93264433D01*
X147897232Y-93259397D01*
X147882881Y-93235124D01*
X147873394Y-93209178D01*
X147867790Y-93175022D01*
X147865086Y-93126119D01*
X147864299Y-93055935D01*
X147864286Y-93040200D01*
X147864322Y-93035192D01*
X148009429Y-93035192D01*
X148010273Y-93101430D01*
X148013596Y-93145386D01*
X148020583Y-93173779D01*
X148032416Y-93193325D01*
X148038457Y-93199857D01*
X148073186Y-93224680D01*
X148106903Y-93223548D01*
X148140995Y-93202016D01*
X148161329Y-93179029D01*
X148173371Y-93145478D01*
X148180134Y-93092569D01*
X148180598Y-93086399D01*
X148181752Y-92990513D01*
X148169688Y-92919299D01*
X148144570Y-92873194D01*
X148106560Y-92852635D01*
X148092992Y-92851514D01*
X148057364Y-92857152D01*
X148032994Y-92876686D01*
X148018093Y-92914042D01*
X148010875Y-92973150D01*
X148009429Y-93035192D01*
X147864322Y-93035192D01*
X147864826Y-92965413D01*
X147867096Y-92913159D01*
X147872068Y-92876949D01*
X147880713Y-92850299D01*
X147894005Y-92826722D01*
X147896943Y-92822338D01*
X147946313Y-92763249D01*
X148000109Y-92728947D01*
X148065602Y-92715331D01*
X148087842Y-92714665D01*
X148171115Y-92726962D01*
G37*
X148171115Y-92726962D02*
X148239145Y-92762733D01*
X148289351Y-92820301D01*
X148307185Y-92857312D01*
X148321063Y-92912882D01*
X148328167Y-92983096D01*
X148328840Y-93059727D01*
X148323427Y-93134552D01*
X148312270Y-93199342D01*
X148295714Y-93245873D01*
X148290626Y-93253887D01*
X148230355Y-93313707D01*
X148158769Y-93349535D01*
X148081092Y-93360020D01*
X148002548Y-93343810D01*
X147980689Y-93334092D01*
X147938122Y-93304143D01*
X147900763Y-93264433D01*
X147897232Y-93259397D01*
X147882881Y-93235124D01*
X147873394Y-93209178D01*
X147867790Y-93175022D01*
X147865086Y-93126119D01*
X147864299Y-93055935D01*
X147864286Y-93040200D01*
X147864322Y-93035192D01*
X148009429Y-93035192D01*
X148010273Y-93101430D01*
X148013596Y-93145386D01*
X148020583Y-93173779D01*
X148032416Y-93193325D01*
X148038457Y-93199857D01*
X148073186Y-93224680D01*
X148106903Y-93223548D01*
X148140995Y-93202016D01*
X148161329Y-93179029D01*
X148173371Y-93145478D01*
X148180134Y-93092569D01*
X148180598Y-93086399D01*
X148181752Y-92990513D01*
X148169688Y-92919299D01*
X148144570Y-92873194D01*
X148106560Y-92852635D01*
X148092992Y-92851514D01*
X148057364Y-92857152D01*
X148032994Y-92876686D01*
X148018093Y-92914042D01*
X148010875Y-92973150D01*
X148009429Y-93035192D01*
X147864322Y-93035192D01*
X147864826Y-92965413D01*
X147867096Y-92913159D01*
X147872068Y-92876949D01*
X147880713Y-92850299D01*
X147894005Y-92826722D01*
X147896943Y-92822338D01*
X147946313Y-92763249D01*
X148000109Y-92728947D01*
X148065602Y-92715331D01*
X148087842Y-92714665D01*
X148171115Y-92726962D01*
G36*
X149846093Y-92732780D02*
G01*
X149892672Y-92759723D01*
X149925057Y-92786466D01*
X149948742Y-92814484D01*
X149965059Y-92848748D01*
X149975339Y-92894227D01*
X149980914Y-92955892D01*
X149983116Y-93038711D01*
X149983371Y-93098246D01*
X149983371Y-93317391D01*
X149921686Y-93345044D01*
X149860000Y-93372697D01*
X149852743Y-93132670D01*
X149849744Y-93043028D01*
X149846598Y-92977962D01*
X149842701Y-92933026D01*
X149837447Y-92903770D01*
X149830231Y-92885748D01*
X149820450Y-92874511D01*
X149817312Y-92872079D01*
X149769761Y-92853083D01*
X149721697Y-92860600D01*
X149693086Y-92880543D01*
X149681447Y-92894675D01*
X149673391Y-92913220D01*
X149668271Y-92941334D01*
X149665441Y-92984173D01*
X149664256Y-93046895D01*
X149664057Y-93112261D01*
X149664018Y-93194268D01*
X149662614Y-93252316D01*
X149657914Y-93291465D01*
X149647987Y-93316780D01*
X149630903Y-93333323D01*
X149604732Y-93346156D01*
X149569775Y-93359491D01*
X149531596Y-93374007D01*
X149536141Y-93116389D01*
X149537971Y-93023519D01*
X149540112Y-92954889D01*
X149543181Y-92905711D01*
X149547794Y-92871198D01*
X149554568Y-92846562D01*
X149564119Y-92827016D01*
X149575634Y-92809770D01*
X149631190Y-92754680D01*
X149698980Y-92722822D01*
X149772713Y-92715191D01*
X149846093Y-92732780D01*
G37*
X149846093Y-92732780D02*
X149892672Y-92759723D01*
X149925057Y-92786466D01*
X149948742Y-92814484D01*
X149965059Y-92848748D01*
X149975339Y-92894227D01*
X149980914Y-92955892D01*
X149983116Y-93038711D01*
X149983371Y-93098246D01*
X149983371Y-93317391D01*
X149921686Y-93345044D01*
X149860000Y-93372697D01*
X149852743Y-93132670D01*
X149849744Y-93043028D01*
X149846598Y-92977962D01*
X149842701Y-92933026D01*
X149837447Y-92903770D01*
X149830231Y-92885748D01*
X149820450Y-92874511D01*
X149817312Y-92872079D01*
X149769761Y-92853083D01*
X149721697Y-92860600D01*
X149693086Y-92880543D01*
X149681447Y-92894675D01*
X149673391Y-92913220D01*
X149668271Y-92941334D01*
X149665441Y-92984173D01*
X149664256Y-93046895D01*
X149664057Y-93112261D01*
X149664018Y-93194268D01*
X149662614Y-93252316D01*
X149657914Y-93291465D01*
X149647987Y-93316780D01*
X149630903Y-93333323D01*
X149604732Y-93346156D01*
X149569775Y-93359491D01*
X149531596Y-93374007D01*
X149536141Y-93116389D01*
X149537971Y-93023519D01*
X149540112Y-92954889D01*
X149543181Y-92905711D01*
X149547794Y-92871198D01*
X149554568Y-92846562D01*
X149564119Y-92827016D01*
X149575634Y-92809770D01*
X149631190Y-92754680D01*
X149698980Y-92722822D01*
X149772713Y-92715191D01*
X149846093Y-92732780D01*
G36*
X148729744Y-92724918D02*
G01*
X148785201Y-92752568D01*
X148834148Y-92803480D01*
X148847629Y-92822338D01*
X148862314Y-92847015D01*
X148871842Y-92873816D01*
X148877293Y-92909587D01*
X148879747Y-92961169D01*
X148880286Y-93029267D01*
X148877852Y-93122588D01*
X148869394Y-93192657D01*
X148853174Y-93244931D01*
X148827454Y-93284869D01*
X148790497Y-93317929D01*
X148787782Y-93319886D01*
X148751360Y-93339908D01*
X148707502Y-93349815D01*
X148651724Y-93352257D01*
X148561048Y-93352257D01*
X148561010Y-93440283D01*
X148560166Y-93489308D01*
X148555024Y-93518065D01*
X148541587Y-93535311D01*
X148515858Y-93549808D01*
X148509679Y-93552769D01*
X148480764Y-93566648D01*
X148458376Y-93575414D01*
X148441729Y-93576171D01*
X148430036Y-93566023D01*
X148422510Y-93542073D01*
X148418366Y-93501426D01*
X148416815Y-93441186D01*
X148417071Y-93358455D01*
X148418349Y-93250339D01*
X148418748Y-93218000D01*
X148420185Y-93106524D01*
X148421472Y-93033603D01*
X148560971Y-93033603D01*
X148561755Y-93095499D01*
X148565240Y-93135997D01*
X148573124Y-93162708D01*
X148587105Y-93183244D01*
X148596597Y-93193260D01*
X148635404Y-93222567D01*
X148669763Y-93224952D01*
X148705216Y-93200750D01*
X148706114Y-93199857D01*
X148720539Y-93181153D01*
X148729313Y-93155732D01*
X148733739Y-93116584D01*
X148735118Y-93056697D01*
X148735143Y-93043430D01*
X148731812Y-92960901D01*
X148720969Y-92903691D01*
X148701340Y-92868766D01*
X148671650Y-92853094D01*
X148654491Y-92851514D01*
X148613766Y-92858926D01*
X148585832Y-92883330D01*
X148569017Y-92927980D01*
X148561650Y-92996130D01*
X148560971Y-93033603D01*
X148421472Y-93033603D01*
X148421708Y-93020245D01*
X148423677Y-92955333D01*
X148426450Y-92907958D01*
X148430388Y-92874290D01*
X148435849Y-92850498D01*
X148443192Y-92832753D01*
X148452777Y-92817224D01*
X148456887Y-92811381D01*
X148511405Y-92756185D01*
X148580336Y-92724890D01*
X148660072Y-92716165D01*
X148729744Y-92724918D01*
G37*
X148729744Y-92724918D02*
X148785201Y-92752568D01*
X148834148Y-92803480D01*
X148847629Y-92822338D01*
X148862314Y-92847015D01*
X148871842Y-92873816D01*
X148877293Y-92909587D01*
X148879747Y-92961169D01*
X148880286Y-93029267D01*
X148877852Y-93122588D01*
X148869394Y-93192657D01*
X148853174Y-93244931D01*
X148827454Y-93284869D01*
X148790497Y-93317929D01*
X148787782Y-93319886D01*
X148751360Y-93339908D01*
X148707502Y-93349815D01*
X148651724Y-93352257D01*
X148561048Y-93352257D01*
X148561010Y-93440283D01*
X148560166Y-93489308D01*
X148555024Y-93518065D01*
X148541587Y-93535311D01*
X148515858Y-93549808D01*
X148509679Y-93552769D01*
X148480764Y-93566648D01*
X148458376Y-93575414D01*
X148441729Y-93576171D01*
X148430036Y-93566023D01*
X148422510Y-93542073D01*
X148418366Y-93501426D01*
X148416815Y-93441186D01*
X148417071Y-93358455D01*
X148418349Y-93250339D01*
X148418748Y-93218000D01*
X148420185Y-93106524D01*
X148421472Y-93033603D01*
X148560971Y-93033603D01*
X148561755Y-93095499D01*
X148565240Y-93135997D01*
X148573124Y-93162708D01*
X148587105Y-93183244D01*
X148596597Y-93193260D01*
X148635404Y-93222567D01*
X148669763Y-93224952D01*
X148705216Y-93200750D01*
X148706114Y-93199857D01*
X148720539Y-93181153D01*
X148729313Y-93155732D01*
X148733739Y-93116584D01*
X148735118Y-93056697D01*
X148735143Y-93043430D01*
X148731812Y-92960901D01*
X148720969Y-92903691D01*
X148701340Y-92868766D01*
X148671650Y-92853094D01*
X148654491Y-92851514D01*
X148613766Y-92858926D01*
X148585832Y-92883330D01*
X148569017Y-92927980D01*
X148561650Y-92996130D01*
X148560971Y-93033603D01*
X148421472Y-93033603D01*
X148421708Y-93020245D01*
X148423677Y-92955333D01*
X148426450Y-92907958D01*
X148430388Y-92874290D01*
X148435849Y-92850498D01*
X148443192Y-92832753D01*
X148452777Y-92817224D01*
X148456887Y-92811381D01*
X148511405Y-92756185D01*
X148580336Y-92724890D01*
X148660072Y-92716165D01*
X148729744Y-92724918D01*
D11*
X153634902Y-97332916D02*
X154525856Y-96441961D01*
X154525856Y-96441961D02*
X153748039Y-95664144D01*
X153748039Y-95664144D02*
X152857084Y-96555098D01*
X152857371Y-96555326D02*
G75*
G03X153634902Y-97332916I-2997371J-3774674D01*
G01*
X131880000Y-108180000D02*
X131880000Y-112720000D01*
X129740000Y-108180000D02*
X129740000Y-112720000D01*
X131880000Y-108180000D02*
X131865000Y-108180000D01*
X129755000Y-108180000D02*
X129740000Y-108180000D01*
X131880000Y-112720000D02*
X131865000Y-112720000D01*
X129755000Y-112720000D02*
X129740000Y-112720000D01*
X110930000Y-114300000D02*
X110930000Y-113920000D01*
X106880000Y-114300000D02*
X106620000Y-114300000D01*
X110930000Y-114300000D02*
X109160000Y-114300000D01*
X110930000Y-106680000D02*
X110930000Y-107060000D01*
X109160000Y-106680000D02*
X110930000Y-106680000D01*
X106620000Y-106680000D02*
X106880000Y-106680000D01*
X106680000Y-102750000D02*
X106680000Y-87750000D01*
X106680000Y-87750000D02*
X121680000Y-87750000D01*
X121680000Y-87750000D02*
X121680000Y-102750000D01*
X121680000Y-102750000D02*
X106680000Y-102750000D01*
X106880000Y-95250000D02*
X107880000Y-96250000D01*
X106880000Y-95250000D02*
X107880000Y-94250000D01*
X127100000Y-105950000D02*
X124360000Y-105950000D01*
X124360000Y-105950000D02*
X124360000Y-112490000D01*
X124360000Y-112490000D02*
X127100000Y-112490000D01*
X127100000Y-112490000D02*
X127100000Y-105950000D01*
X125730000Y-105180000D02*
X125730000Y-105950000D01*
X125730000Y-113260000D02*
X125730000Y-112490000D01*
X116655000Y-110490000D02*
X116655000Y-113215000D01*
X116655000Y-113215000D02*
X116915000Y-113215000D01*
X116655000Y-110490000D02*
X116655000Y-107765000D01*
X116655000Y-107765000D02*
X116915000Y-107765000D01*
X122105000Y-110490000D02*
X122105000Y-113215000D01*
X122105000Y-113215000D02*
X121845000Y-113215000D01*
X122105000Y-110490000D02*
X122105000Y-107765000D01*
X122105000Y-107765000D02*
X121845000Y-107765000D01*
X121845000Y-107765000D02*
X121845000Y-106090000D01*
D13*
X144597380Y-96623095D02*
X143597380Y-96623095D01*
X143597380Y-96385000D01*
X143645000Y-96242142D01*
X143740238Y-96146904D01*
X143835476Y-96099285D01*
X144025952Y-96051666D01*
X144168809Y-96051666D01*
X144359285Y-96099285D01*
X144454523Y-96146904D01*
X144549761Y-96242142D01*
X144597380Y-96385000D01*
X144597380Y-96623095D01*
X144597380Y-95099285D02*
X144597380Y-95670714D01*
X144597380Y-95385000D02*
X143597380Y-95385000D01*
X143740238Y-95480238D01*
X143835476Y-95575476D01*
X143883095Y-95670714D01*
X143968571Y-102282380D02*
X144016190Y-102139523D01*
X144063809Y-102091904D01*
X144159047Y-102044285D01*
X144301904Y-102044285D01*
X144397142Y-102091904D01*
X144444761Y-102139523D01*
X144492380Y-102234761D01*
X144492380Y-102615714D01*
X143492380Y-102615714D01*
X143492380Y-102282380D01*
X143540000Y-102187142D01*
X143587619Y-102139523D01*
X143682857Y-102091904D01*
X143778095Y-102091904D01*
X143873333Y-102139523D01*
X143920952Y-102187142D01*
X143968571Y-102282380D01*
X143968571Y-102615714D01*
X144492380Y-101615714D02*
X143492380Y-101615714D01*
X143492380Y-101234761D01*
X143540000Y-101139523D01*
X143587619Y-101091904D01*
X143682857Y-101044285D01*
X143825714Y-101044285D01*
X143920952Y-101091904D01*
X143968571Y-101139523D01*
X144016190Y-101234761D01*
X144016190Y-101615714D01*
X143492380Y-100710952D02*
X144492380Y-100472857D01*
X143778095Y-100282380D01*
X144492380Y-100091904D01*
X143492380Y-99853809D01*
X143587619Y-99520476D02*
X143540000Y-99472857D01*
X143492380Y-99377619D01*
X143492380Y-99139523D01*
X143540000Y-99044285D01*
X143587619Y-98996666D01*
X143682857Y-98949047D01*
X143778095Y-98949047D01*
X143920952Y-98996666D01*
X144492380Y-99568095D01*
X144492380Y-98949047D01*
X144492380Y-97996666D02*
X144492380Y-98568095D01*
X144492380Y-98282380D02*
X143492380Y-98282380D01*
X143635238Y-98377619D01*
X143730476Y-98472857D01*
X143778095Y-98568095D01*
X133367142Y-110616666D02*
X133414761Y-110664285D01*
X133462380Y-110807142D01*
X133462380Y-110902380D01*
X133414761Y-111045238D01*
X133319523Y-111140476D01*
X133224285Y-111188095D01*
X133033809Y-111235714D01*
X132890952Y-111235714D01*
X132700476Y-111188095D01*
X132605238Y-111140476D01*
X132510000Y-111045238D01*
X132462380Y-110902380D01*
X132462380Y-110807142D01*
X132510000Y-110664285D01*
X132557619Y-110616666D01*
X133462380Y-109664285D02*
X133462380Y-110235714D01*
X133462380Y-109950000D02*
X132462380Y-109950000D01*
X132605238Y-110045238D01*
X132700476Y-110140476D01*
X132748095Y-110235714D01*
X131262380Y-111045238D02*
X131262380Y-111616666D01*
X131262380Y-111330952D02*
X130262380Y-111330952D01*
X130405238Y-111426190D01*
X130500476Y-111521428D01*
X130548095Y-111616666D01*
X130595714Y-110616666D02*
X131595714Y-110616666D01*
X130643333Y-110616666D02*
X130595714Y-110521428D01*
X130595714Y-110330952D01*
X130643333Y-110235714D01*
X130690952Y-110188095D01*
X130786190Y-110140476D01*
X131071904Y-110140476D01*
X131167142Y-110188095D01*
X131214761Y-110235714D01*
X131262380Y-110330952D01*
X131262380Y-110521428D01*
X131214761Y-110616666D01*
X130738571Y-109378571D02*
X130738571Y-109711904D01*
X131262380Y-109711904D02*
X130262380Y-109711904D01*
X130262380Y-109235714D01*
X111972380Y-110823333D02*
X112686666Y-110823333D01*
X112829523Y-110870952D01*
X112924761Y-110966190D01*
X112972380Y-111109047D01*
X112972380Y-111204285D01*
X112972380Y-109823333D02*
X112972380Y-110394761D01*
X112972380Y-110109047D02*
X111972380Y-110109047D01*
X112115238Y-110204285D01*
X112210476Y-110299523D01*
X112258095Y-110394761D01*
X122832380Y-95583333D02*
X123546666Y-95583333D01*
X123689523Y-95630952D01*
X123784761Y-95726190D01*
X123832380Y-95869047D01*
X123832380Y-95964285D01*
X122927619Y-95154761D02*
X122880000Y-95107142D01*
X122832380Y-95011904D01*
X122832380Y-94773809D01*
X122880000Y-94678571D01*
X122927619Y-94630952D01*
X123022857Y-94583333D01*
X123118095Y-94583333D01*
X123260952Y-94630952D01*
X123832380Y-95202380D01*
X123832380Y-94583333D01*
X128552380Y-109386666D02*
X128076190Y-109720000D01*
X128552380Y-109958095D02*
X127552380Y-109958095D01*
X127552380Y-109577142D01*
X127600000Y-109481904D01*
X127647619Y-109434285D01*
X127742857Y-109386666D01*
X127885714Y-109386666D01*
X127980952Y-109434285D01*
X128028571Y-109481904D01*
X128076190Y-109577142D01*
X128076190Y-109958095D01*
X128552380Y-108434285D02*
X128552380Y-109005714D01*
X128552380Y-108720000D02*
X127552380Y-108720000D01*
X127695238Y-108815238D01*
X127790476Y-108910476D01*
X127838095Y-109005714D01*
X126182380Y-111529523D02*
X126182380Y-112100952D01*
X126182380Y-111815238D02*
X125182380Y-111815238D01*
X125325238Y-111910476D01*
X125420476Y-112005714D01*
X125468095Y-112100952D01*
X126182380Y-110339047D02*
X125182380Y-110339047D01*
X125896666Y-110005714D01*
X125182380Y-109672380D01*
X126182380Y-109672380D01*
X125182380Y-109005714D02*
X125182380Y-108815238D01*
X125230000Y-108720000D01*
X125325238Y-108624761D01*
X125515714Y-108577142D01*
X125849047Y-108577142D01*
X126039523Y-108624761D01*
X126134761Y-108720000D01*
X126182380Y-108815238D01*
X126182380Y-109005714D01*
X126134761Y-109100952D01*
X126039523Y-109196190D01*
X125849047Y-109243809D01*
X125515714Y-109243809D01*
X125325238Y-109196190D01*
X125230000Y-109100952D01*
X125182380Y-109005714D01*
X126182380Y-108148571D02*
X125182380Y-108148571D01*
X126182380Y-107720000D02*
X125658571Y-107720000D01*
X125563333Y-107767619D01*
X125515714Y-107862857D01*
X125515714Y-108005714D01*
X125563333Y-108100952D01*
X125610952Y-108148571D01*
X126182380Y-107243809D02*
X125515714Y-107243809D01*
X125610952Y-107243809D02*
X125563333Y-107196190D01*
X125515714Y-107100952D01*
X125515714Y-106958095D01*
X125563333Y-106862857D01*
X125658571Y-106815238D01*
X126182380Y-106815238D01*
X125658571Y-106815238D02*
X125563333Y-106767619D01*
X125515714Y-106672380D01*
X125515714Y-106529523D01*
X125563333Y-106434285D01*
X125658571Y-106386666D01*
X126182380Y-106386666D01*
X122392380Y-111251904D02*
X123201904Y-111251904D01*
X123297142Y-111204285D01*
X123344761Y-111156666D01*
X123392380Y-111061428D01*
X123392380Y-110870952D01*
X123344761Y-110775714D01*
X123297142Y-110728095D01*
X123201904Y-110680476D01*
X122392380Y-110680476D01*
X123392380Y-109680476D02*
X123392380Y-110251904D01*
X123392380Y-109966190D02*
X122392380Y-109966190D01*
X122535238Y-110061428D01*
X122630476Y-110156666D01*
X122678095Y-110251904D01*
X116272380Y-112180476D02*
X116272380Y-112656666D01*
X115272380Y-112656666D01*
X116272380Y-111847142D02*
X115272380Y-111847142D01*
X115986666Y-111513809D01*
X115272380Y-111180476D01*
X116272380Y-111180476D01*
X115272380Y-110799523D02*
X115272380Y-110180476D01*
X115653333Y-110513809D01*
X115653333Y-110370952D01*
X115700952Y-110275714D01*
X115748571Y-110228095D01*
X115843809Y-110180476D01*
X116081904Y-110180476D01*
X116177142Y-110228095D01*
X116224761Y-110275714D01*
X116272380Y-110370952D01*
X116272380Y-110656666D01*
X116224761Y-110751904D01*
X116177142Y-110799523D01*
X115272380Y-109275714D02*
X115272380Y-109751904D01*
X115748571Y-109799523D01*
X115700952Y-109751904D01*
X115653333Y-109656666D01*
X115653333Y-109418571D01*
X115700952Y-109323333D01*
X115748571Y-109275714D01*
X115843809Y-109228095D01*
X116081904Y-109228095D01*
X116177142Y-109275714D01*
X116224761Y-109323333D01*
X116272380Y-109418571D01*
X116272380Y-109656666D01*
X116224761Y-109751904D01*
X116177142Y-109799523D01*
X115700952Y-108656666D02*
X115653333Y-108751904D01*
X115605714Y-108799523D01*
X115510476Y-108847142D01*
X115462857Y-108847142D01*
X115367619Y-108799523D01*
X115320000Y-108751904D01*
X115272380Y-108656666D01*
X115272380Y-108466190D01*
X115320000Y-108370952D01*
X115367619Y-108323333D01*
X115462857Y-108275714D01*
X115510476Y-108275714D01*
X115605714Y-108323333D01*
X115653333Y-108370952D01*
X115700952Y-108466190D01*
X115700952Y-108656666D01*
X115748571Y-108751904D01*
X115796190Y-108799523D01*
X115891428Y-108847142D01*
X116081904Y-108847142D01*
X116177142Y-108799523D01*
X116224761Y-108751904D01*
X116272380Y-108656666D01*
X116272380Y-108466190D01*
X116224761Y-108370952D01*
X116177142Y-108323333D01*
X116081904Y-108275714D01*
X115891428Y-108275714D01*
X115796190Y-108323333D01*
X115748571Y-108370952D01*
X115700952Y-108466190D01*
M02*
