G04 #@! TF.GenerationSoftware,KiCad,Pcbnew,5.1.5-52549c5~84~ubuntu18.04.1*
G04 #@! TF.CreationDate,2020-03-26T09:19:54+00:00*
G04 #@! TF.ProjectId,fast_diode_pcb,66617374-5f64-4696-9f64-655f7063622e,rev?*
G04 #@! TF.SameCoordinates,Original*
G04 #@! TF.FileFunction,Other,User*
%FSLAX46Y46*%
G04 Gerber Fmt 4.6, Leading zero omitted, Abs format (unit mm)*
G04 Created by KiCad (PCBNEW 5.1.5-52549c5~84~ubuntu18.04.1) date 2020-03-26 09:19:54*
%MOMM*%
%LPD*%
G04 APERTURE LIST*
%ADD10C,0.050000*%
G04 APERTURE END LIST*
D10*
X154810000Y-95380000D02*
X144910000Y-95380000D01*
X144910000Y-95380000D02*
X144910000Y-105280000D01*
X144910000Y-105280000D02*
X154810000Y-105280000D01*
X154810000Y-105280000D02*
X154810000Y-95380000D01*
X132010000Y-106900000D02*
X129610000Y-106900000D01*
X129610000Y-106900000D02*
X129610000Y-114000000D01*
X129610000Y-114000000D02*
X132010000Y-114000000D01*
X132010000Y-114000000D02*
X132010000Y-106900000D01*
X105370000Y-115190000D02*
X105370000Y-105790000D01*
X111870000Y-115190000D02*
X105370000Y-115190000D01*
X111870000Y-105790000D02*
X111870000Y-115190000D01*
X105370000Y-105790000D02*
X111870000Y-105790000D01*
X122080000Y-103100000D02*
X122080000Y-87400000D01*
X122080000Y-103100000D02*
X85580000Y-103100000D01*
X85580000Y-87400000D02*
X85580000Y-103100000D01*
X122080000Y-87400000D02*
X85580000Y-87400000D01*
X127230000Y-103090000D02*
X124230000Y-103090000D01*
X124230000Y-103090000D02*
X124230000Y-115350000D01*
X124230000Y-115350000D02*
X127230000Y-115350000D01*
X127230000Y-115350000D02*
X127230000Y-103090000D01*
X122240000Y-105840000D02*
X116520000Y-105840000D01*
X116520000Y-105840000D02*
X116520000Y-115140000D01*
X116520000Y-115140000D02*
X122240000Y-115140000D01*
X122240000Y-115140000D02*
X122240000Y-105840000D01*
M02*
