G04 #@! TF.GenerationSoftware,KiCad,Pcbnew,(5.1.5)-3*
G04 #@! TF.CreationDate,2020-02-27T09:25:40+00:00*
G04 #@! TF.ProjectId,fast_diode_pcb,66617374-5f64-4696-9f64-655f7063622e,rev?*
G04 #@! TF.SameCoordinates,Original*
G04 #@! TF.FileFunction,Soldermask,Bot*
G04 #@! TF.FilePolarity,Negative*
%FSLAX46Y46*%
G04 Gerber Fmt 4.6, Leading zero omitted, Abs format (unit mm)*
G04 Created by KiCad (PCBNEW (5.1.5)-3) date 2020-02-27 09:25:40*
%MOMM*%
%LPD*%
G04 APERTURE LIST*
%ADD10C,0.100000*%
G04 APERTURE END LIST*
D10*
G36*
X125978228Y-113481703D02*
G01*
X126133100Y-113545853D01*
X126272481Y-113638985D01*
X126391015Y-113757519D01*
X126484147Y-113896900D01*
X126548297Y-114051772D01*
X126581000Y-114216184D01*
X126581000Y-114383816D01*
X126548297Y-114548228D01*
X126484147Y-114703100D01*
X126391015Y-114842481D01*
X126272481Y-114961015D01*
X126133100Y-115054147D01*
X125978228Y-115118297D01*
X125813816Y-115151000D01*
X125646184Y-115151000D01*
X125481772Y-115118297D01*
X125326900Y-115054147D01*
X125187519Y-114961015D01*
X125068985Y-114842481D01*
X124975853Y-114703100D01*
X124911703Y-114548228D01*
X124879000Y-114383816D01*
X124879000Y-114216184D01*
X124911703Y-114051772D01*
X124975853Y-113896900D01*
X125068985Y-113757519D01*
X125187519Y-113638985D01*
X125326900Y-113545853D01*
X125481772Y-113481703D01*
X125646184Y-113449000D01*
X125813816Y-113449000D01*
X125978228Y-113481703D01*
G37*
G36*
X131058228Y-112131703D02*
G01*
X131213100Y-112195853D01*
X131352481Y-112288985D01*
X131471015Y-112407519D01*
X131564147Y-112546900D01*
X131628297Y-112701772D01*
X131661000Y-112866184D01*
X131661000Y-113033816D01*
X131628297Y-113198228D01*
X131564147Y-113353100D01*
X131471015Y-113492481D01*
X131352481Y-113611015D01*
X131213100Y-113704147D01*
X131058228Y-113768297D01*
X130893816Y-113801000D01*
X130726184Y-113801000D01*
X130561772Y-113768297D01*
X130406900Y-113704147D01*
X130267519Y-113611015D01*
X130148985Y-113492481D01*
X130055853Y-113353100D01*
X129991703Y-113198228D01*
X129959000Y-113033816D01*
X129959000Y-112866184D01*
X129991703Y-112701772D01*
X130055853Y-112546900D01*
X130148985Y-112407519D01*
X130267519Y-112288985D01*
X130406900Y-112195853D01*
X130561772Y-112131703D01*
X130726184Y-112099000D01*
X130893816Y-112099000D01*
X131058228Y-112131703D01*
G37*
G36*
X131058228Y-107131703D02*
G01*
X131213100Y-107195853D01*
X131352481Y-107288985D01*
X131471015Y-107407519D01*
X131564147Y-107546900D01*
X131628297Y-107701772D01*
X131661000Y-107866184D01*
X131661000Y-108033816D01*
X131628297Y-108198228D01*
X131564147Y-108353100D01*
X131471015Y-108492481D01*
X131352481Y-108611015D01*
X131213100Y-108704147D01*
X131058228Y-108768297D01*
X130893816Y-108801000D01*
X130726184Y-108801000D01*
X130561772Y-108768297D01*
X130406900Y-108704147D01*
X130267519Y-108611015D01*
X130148985Y-108492481D01*
X130055853Y-108353100D01*
X129991703Y-108198228D01*
X129959000Y-108033816D01*
X129959000Y-107866184D01*
X129991703Y-107701772D01*
X130055853Y-107546900D01*
X130148985Y-107407519D01*
X130267519Y-107288985D01*
X130406900Y-107195853D01*
X130561772Y-107131703D01*
X130726184Y-107099000D01*
X130893816Y-107099000D01*
X131058228Y-107131703D01*
G37*
G36*
X125978228Y-103321703D02*
G01*
X126133100Y-103385853D01*
X126272481Y-103478985D01*
X126391015Y-103597519D01*
X126484147Y-103736900D01*
X126548297Y-103891772D01*
X126581000Y-104056184D01*
X126581000Y-104223816D01*
X126548297Y-104388228D01*
X126484147Y-104543100D01*
X126391015Y-104682481D01*
X126272481Y-104801015D01*
X126133100Y-104894147D01*
X125978228Y-104958297D01*
X125813816Y-104991000D01*
X125646184Y-104991000D01*
X125481772Y-104958297D01*
X125326900Y-104894147D01*
X125187519Y-104801015D01*
X125068985Y-104682481D01*
X124975853Y-104543100D01*
X124911703Y-104388228D01*
X124879000Y-104223816D01*
X124879000Y-104056184D01*
X124911703Y-103891772D01*
X124975853Y-103736900D01*
X125068985Y-103597519D01*
X125187519Y-103478985D01*
X125326900Y-103385853D01*
X125481772Y-103321703D01*
X125646184Y-103289000D01*
X125813816Y-103289000D01*
X125978228Y-103321703D01*
G37*
G36*
X150049890Y-102244017D02*
G01*
X150168364Y-102293091D01*
X150274988Y-102364335D01*
X150365665Y-102455012D01*
X150436909Y-102561636D01*
X150485983Y-102680110D01*
X150511000Y-102805882D01*
X150511000Y-102934118D01*
X150485983Y-103059890D01*
X150436909Y-103178364D01*
X150365665Y-103284988D01*
X150274988Y-103375665D01*
X150168364Y-103446909D01*
X150168363Y-103446910D01*
X150168362Y-103446910D01*
X150049890Y-103495983D01*
X149924119Y-103521000D01*
X149795881Y-103521000D01*
X149670110Y-103495983D01*
X149551638Y-103446910D01*
X149551637Y-103446910D01*
X149551636Y-103446909D01*
X149445012Y-103375665D01*
X149354335Y-103284988D01*
X149283091Y-103178364D01*
X149234017Y-103059890D01*
X149209000Y-102934118D01*
X149209000Y-102805882D01*
X149234017Y-102680110D01*
X149283091Y-102561636D01*
X149354335Y-102455012D01*
X149445012Y-102364335D01*
X149551636Y-102293091D01*
X149670110Y-102244017D01*
X149795881Y-102219000D01*
X149924119Y-102219000D01*
X150049890Y-102244017D01*
G37*
G36*
X116188277Y-98533905D02*
G01*
X116403058Y-98555059D01*
X116742548Y-98658042D01*
X116742550Y-98658043D01*
X117055422Y-98825277D01*
X117055424Y-98825278D01*
X117055423Y-98825278D01*
X117329661Y-99050339D01*
X117554722Y-99324577D01*
X117721958Y-99637452D01*
X117824941Y-99976942D01*
X117859714Y-100330000D01*
X117824941Y-100683058D01*
X117721958Y-101022548D01*
X117721957Y-101022550D01*
X117554723Y-101335422D01*
X117329661Y-101609661D01*
X117055422Y-101834723D01*
X116742550Y-102001957D01*
X116742548Y-102001958D01*
X116403058Y-102104941D01*
X116226669Y-102122314D01*
X116138476Y-102131000D01*
X112461524Y-102131000D01*
X112373331Y-102122314D01*
X112196942Y-102104941D01*
X111857452Y-102001958D01*
X111857450Y-102001957D01*
X111544578Y-101834723D01*
X111270339Y-101609661D01*
X111045277Y-101335422D01*
X110878043Y-101022550D01*
X110878042Y-101022548D01*
X110775059Y-100683058D01*
X110740286Y-100330000D01*
X110775059Y-99976942D01*
X110878042Y-99637452D01*
X111045278Y-99324577D01*
X111270339Y-99050339D01*
X111544577Y-98825278D01*
X111544576Y-98825278D01*
X111544578Y-98825277D01*
X111857450Y-98658043D01*
X111857452Y-98658042D01*
X112196942Y-98555059D01*
X112411723Y-98533905D01*
X112461524Y-98529000D01*
X116138476Y-98529000D01*
X116188277Y-98533905D01*
G37*
G36*
X149987618Y-96948420D02*
G01*
X150078404Y-96975960D01*
X150110336Y-96985646D01*
X150223425Y-97046094D01*
X150322554Y-97127446D01*
X150403906Y-97226575D01*
X150464354Y-97339664D01*
X150464355Y-97339668D01*
X150501580Y-97462382D01*
X150511000Y-97558028D01*
X150511000Y-98021973D01*
X150501580Y-98117618D01*
X150474040Y-98208404D01*
X150464354Y-98240336D01*
X150403906Y-98353425D01*
X150322554Y-98452553D01*
X150223424Y-98533906D01*
X150110335Y-98594354D01*
X150078403Y-98604040D01*
X149987617Y-98631580D01*
X149860000Y-98644149D01*
X149732382Y-98631580D01*
X149641596Y-98604040D01*
X149609664Y-98594354D01*
X149496575Y-98533906D01*
X149397447Y-98452554D01*
X149316094Y-98353424D01*
X149255646Y-98240335D01*
X149245960Y-98208403D01*
X149218420Y-98117617D01*
X149209000Y-98021972D01*
X149209000Y-97558027D01*
X149218420Y-97462382D01*
X149255645Y-97339668D01*
X149255646Y-97339664D01*
X149316094Y-97226575D01*
X149397447Y-97127447D01*
X149496576Y-97046094D01*
X149609665Y-96985646D01*
X149641597Y-96975960D01*
X149732383Y-96948420D01*
X149860000Y-96935851D01*
X149987618Y-96948420D01*
G37*
G36*
X119996823Y-96951313D02*
G01*
X120157242Y-96999976D01*
X120243524Y-97046095D01*
X120305078Y-97078996D01*
X120434659Y-97185341D01*
X120541004Y-97314922D01*
X120541005Y-97314924D01*
X120620024Y-97462758D01*
X120668687Y-97623177D01*
X120685117Y-97790000D01*
X120668687Y-97956823D01*
X120620024Y-98117242D01*
X120554231Y-98240331D01*
X120541004Y-98265078D01*
X120434659Y-98394659D01*
X120305078Y-98501004D01*
X120305076Y-98501005D01*
X120157242Y-98580024D01*
X119996823Y-98628687D01*
X119871804Y-98641000D01*
X118888196Y-98641000D01*
X118763177Y-98628687D01*
X118602758Y-98580024D01*
X118454924Y-98501005D01*
X118454922Y-98501004D01*
X118325341Y-98394659D01*
X118218996Y-98265078D01*
X118205769Y-98240331D01*
X118139976Y-98117242D01*
X118091313Y-97956823D01*
X118074883Y-97790000D01*
X118091313Y-97623177D01*
X118139976Y-97462758D01*
X118218995Y-97314924D01*
X118218996Y-97314922D01*
X118325341Y-97185341D01*
X118454922Y-97078996D01*
X118516476Y-97046095D01*
X118602758Y-96999976D01*
X118763177Y-96951313D01*
X118888196Y-96939000D01*
X119871804Y-96939000D01*
X119996823Y-96951313D01*
G37*
G36*
X119996823Y-94411313D02*
G01*
X120157242Y-94459976D01*
X120289906Y-94530886D01*
X120305078Y-94538996D01*
X120434659Y-94645341D01*
X120541004Y-94774922D01*
X120541005Y-94774924D01*
X120620024Y-94922758D01*
X120668687Y-95083177D01*
X120685117Y-95250000D01*
X120668687Y-95416823D01*
X120620024Y-95577242D01*
X120549114Y-95709906D01*
X120541004Y-95725078D01*
X120434659Y-95854659D01*
X120305078Y-95961004D01*
X120305076Y-95961005D01*
X120157242Y-96040024D01*
X119996823Y-96088687D01*
X119871804Y-96101000D01*
X118888196Y-96101000D01*
X118763177Y-96088687D01*
X118602758Y-96040024D01*
X118454924Y-95961005D01*
X118454922Y-95961004D01*
X118325341Y-95854659D01*
X118218996Y-95725078D01*
X118210886Y-95709906D01*
X118139976Y-95577242D01*
X118091313Y-95416823D01*
X118074883Y-95250000D01*
X118091313Y-95083177D01*
X118139976Y-94922758D01*
X118218995Y-94774924D01*
X118218996Y-94774922D01*
X118325341Y-94645341D01*
X118454922Y-94538996D01*
X118470094Y-94530886D01*
X118602758Y-94459976D01*
X118763177Y-94411313D01*
X118888196Y-94399000D01*
X119871804Y-94399000D01*
X119996823Y-94411313D01*
G37*
G36*
X116226669Y-88377686D02*
G01*
X116403058Y-88395059D01*
X116742548Y-88498042D01*
X116742550Y-88498043D01*
X117055422Y-88665277D01*
X117055424Y-88665278D01*
X117055423Y-88665278D01*
X117329661Y-88890339D01*
X117554722Y-89164577D01*
X117721958Y-89477452D01*
X117824941Y-89816942D01*
X117859714Y-90170000D01*
X117824941Y-90523058D01*
X117721958Y-90862548D01*
X117721957Y-90862550D01*
X117554723Y-91175422D01*
X117329661Y-91449661D01*
X117055422Y-91674723D01*
X116742550Y-91841957D01*
X116742548Y-91841958D01*
X116403058Y-91944941D01*
X116226669Y-91962314D01*
X116138476Y-91971000D01*
X112461524Y-91971000D01*
X112373331Y-91962314D01*
X112196942Y-91944941D01*
X111857452Y-91841958D01*
X111857450Y-91841957D01*
X111544578Y-91674723D01*
X111270339Y-91449661D01*
X111045277Y-91175422D01*
X110878043Y-90862550D01*
X110878042Y-90862548D01*
X110775059Y-90523058D01*
X110740286Y-90170000D01*
X110775059Y-89816942D01*
X110878042Y-89477452D01*
X111045278Y-89164577D01*
X111270339Y-88890339D01*
X111544577Y-88665278D01*
X111544576Y-88665278D01*
X111544578Y-88665277D01*
X111857450Y-88498043D01*
X111857452Y-88498042D01*
X112196942Y-88395059D01*
X112373331Y-88377686D01*
X112461524Y-88369000D01*
X116138476Y-88369000D01*
X116226669Y-88377686D01*
G37*
M02*
